<svg
              viewBox="0 0 535 363"
              fill="none"
              xmlns="http://www.w3.org/2000/svg"
            >
              <g clipPath="url(#clip0_113_58)">
                <g filter="url(#filter0_dddd_113_58)">
                  <rect
                    x={20}
                    y={230}
                    width={278}
                    height={556}
                    rx={12}
                    fill="#131313"
                  />
                  <rect
                    x={20.5}
                    y={230.5}
                    width={277}
                    height={555}
                    rx={11.5}
                    stroke="#333"
                  />
                  <rect x={36} y={246} width={28} height={28} rx={8} fill="#802FFF" />
                  <g
                    clipPath="url(#clip1_113_58)"
                    stroke="#fff"
                    strokeWidth={1.33333}
                    strokeLinecap="round"
                    strokeLinejoin="round"
                  >
                    <path d="M54 258h-8a2.667 2.667 0 00-2.666 2.667v4A2.667 2.667 0 0046 267.333h8a2.667 2.667 0 002.667-2.666v-4A2.667 2.667 0 0054 258zM50 255.333a1.333 1.333 0 100-2.667 1.333 1.333 0 000 2.667zM50 255.333V258m-2 5.333V262m4 0v1.333" />
                  </g>
                  <path
                    d="M73.304 266l4.096-11.36h2.544L84.04 266h-2.176l-.944-2.688h-4.496L75.48 266h-2.176zm3.728-4.464h3.28l-1.632-4.8-1.648 4.8zm11.72 7.056c-.746 0-1.386-.101-1.92-.304-.533-.203-.965-.491-1.296-.864a3.085 3.085 0 01-.672-1.264l2.112-.144c.107.32.288.571.544.752.267.181.678.272 1.232.272.63 0 1.115-.144 1.456-.432.342-.277.512-.715.512-1.312v-1.088c-.202.416-.528.752-.976 1.008-.448.245-.949.368-1.504.368-.704 0-1.333-.171-1.888-.512a3.618 3.618 0 01-1.28-1.456c-.309-.629-.464-1.355-.464-2.176 0-.821.15-1.541.448-2.16.31-.629.736-1.12 1.28-1.472.544-.363 1.168-.544 1.872-.544.619 0 1.152.139 1.6.416.448.277.774.645.976 1.104v-1.328h2v7.792c0 .725-.17 1.339-.512 1.84-.33.501-.8.875-1.408 1.12-.597.256-1.301.384-2.112.384zm-.032-4.608c.608 0 1.094-.224 1.456-.672.363-.459.55-1.088.56-1.888.011-.533-.069-.987-.24-1.36a1.885 1.885 0 00-.704-.88c-.298-.213-.656-.32-1.072-.32-.629 0-1.12.235-1.472.704-.341.459-.512 1.077-.512 1.856 0 .779.176 1.403.528 1.872.363.459.848.688 1.456.688zm9.846 2.208c-.853 0-1.595-.181-2.224-.544a3.76 3.76 0 01-1.456-1.568c-.341-.672-.512-1.456-.512-2.352 0-.896.17-1.675.512-2.336a3.792 3.792 0 011.44-1.568c.63-.373 1.36-.56 2.192-.56.81 0 1.52.181 2.128.544.619.363 1.093.885 1.424 1.568.331.683.496 1.504.496 2.464v.464h-6.064c.043.747.245 1.312.608 1.696.373.373.864.56 1.472.56.459 0 .837-.101 1.136-.304a1.63 1.63 0 00.64-.88l2.096.128a3.464 3.464 0 01-1.392 1.968c-.683.48-1.515.72-2.496.72zm-2.064-5.264h3.952c-.043-.693-.24-1.205-.592-1.536-.352-.341-.8-.512-1.344-.512s-.997.176-1.36.528c-.352.352-.57.859-.656 1.52zm7.665 5.072v-8.544h1.856l.08 2.4-.24-.096c.085-.597.261-1.077.528-1.44s.592-.629.976-.8a3.07 3.07 0 011.264-.256c.629 0 1.157.139 1.584.416.437.277.768.661.992 1.152.224.48.336 1.04.336 1.68V266h-2.048v-4.832c0-.48-.048-.885-.144-1.216-.096-.331-.256-.581-.48-.752-.213-.181-.501-.272-.864-.272-.544 0-.981.192-1.312.576-.32.384-.48.939-.48 1.664V266h-2.048zm12.44 0c-.854 0-1.483-.197-1.888-.592-.395-.395-.592-1.013-.592-1.856v-8.096h2.047v7.904c0 .395.086.672.257.832.17.149.437.224.8.224h1.2V266h-1.824zm-3.824-6.96v-1.584h5.648v1.584h-5.648z"
                    fill="#fff"
                    fillOpacity={0.62}
                  />
                  <path fill="#262626" d="M20 286H298V288H20z" />
                  <path
                    d="M41.472 318.256c-.907 0-1.696-.165-2.368-.496a3.935 3.935 0 01-1.568-1.376c-.384-.587-.608-1.269-.672-2.048l1.776-.112c.075.533.23.987.464 1.36.235.363.55.64.944.832.405.181.89.272 1.456.272.49 0 .907-.059 1.248-.176.352-.128.619-.315.8-.56.181-.245.272-.544.272-.896 0-.32-.08-.603-.24-.848-.15-.256-.443-.485-.88-.688-.427-.213-1.056-.421-1.888-.624-.907-.224-1.632-.469-2.176-.736-.544-.267-.939-.597-1.184-.992-.235-.405-.352-.901-.352-1.488 0-.651.155-1.221.464-1.712.32-.501.773-.891 1.36-1.168.587-.277 1.29-.416 2.112-.416.864 0 1.6.16 2.208.48.619.32 1.104.757 1.456 1.312.363.555.587 1.189.672 1.904l-1.776.096a2.699 2.699 0 00-.4-1.152 2.114 2.114 0 00-.864-.784c-.363-.192-.805-.288-1.328-.288-.661 0-1.184.155-1.568.464-.373.299-.56.699-.56 1.2 0 .32.075.592.224.816.16.213.437.4.832.56.405.16.976.331 1.712.512.981.224 1.76.501 2.336.832.587.32 1.003.699 1.248 1.136.245.437.368.933.368 1.488 0 .672-.176 1.259-.528 1.76-.341.491-.821.869-1.44 1.136-.619.267-1.339.4-2.16.4zm6.411 2.144v-1.392h1.04c.288 0 .502-.043.64-.128.139-.085.245-.229.32-.432l.272-.704h-.528l-3.072-8.256h1.792l2.336 6.688 2.224-6.688h1.808l-3.392 9.504c-.17.491-.426.848-.768 1.072-.33.224-.794.336-1.392.336h-1.28zm11.206-2.208c-.8 0-1.477-.123-2.032-.368-.544-.245-.965-.581-1.264-1.008a3.018 3.018 0 01-.512-1.504l1.744-.08c.086.469.288.843.608 1.12.32.277.806.416 1.456.416.534 0 .955-.085 1.264-.256.31-.171.464-.443.464-.816a.815.815 0 00-.16-.512c-.096-.149-.288-.272-.576-.368-.288-.107-.714-.208-1.28-.304-.842-.16-1.504-.347-1.984-.56-.48-.213-.821-.485-1.024-.816-.202-.331-.304-.731-.304-1.2 0-.779.288-1.413.864-1.904.587-.491 1.43-.736 2.528-.736.736 0 1.355.128 1.856.384.502.245.891.581 1.168 1.008.288.416.47.885.544 1.408l-1.744.096a1.778 1.778 0 00-.32-.768 1.427 1.427 0 00-.608-.512 2.018 2.018 0 00-.912-.192c-.544 0-.949.107-1.216.32-.266.213-.4.491-.4.832 0 .256.059.464.176.624.128.16.331.293.608.4a6.89 6.89 0 001.104.256c.886.149 1.579.336 2.08.56.502.213.854.48 1.056.8.203.32.304.709.304 1.168 0 .533-.149.987-.448 1.36-.298.373-.709.661-1.232.864-.522.192-1.125.288-1.808.288zm8.156-.192c-.81 0-1.408-.187-1.792-.56-.384-.373-.576-.955-.576-1.744v-8.208h1.696v8.08c0 .395.086.667.256.816.17.149.432.224.784.224h1.216V318h-1.584zm-3.664-7.12v-1.392h5.248v1.392h-5.248zm10.232 7.312c-.832 0-1.552-.181-2.16-.544-.597-.363-1.061-.88-1.392-1.552-.32-.672-.48-1.456-.48-2.352 0-.896.16-1.675.48-2.336.331-.672.795-1.189 1.392-1.552.598-.373 1.302-.56 2.112-.56.768 0 1.446.181 2.032.544.587.352 1.04.864 1.36 1.536.331.672.496 1.483.496 2.432v.432h-6.112c.043.832.262 1.456.656 1.872.406.416.95.624 1.632.624.502 0 .918-.117 1.248-.352.331-.235.56-.549.688-.944l1.76.112a3.532 3.532 0 01-1.328 1.92c-.65.48-1.445.72-2.384.72zm-2.272-5.232h4.32c-.053-.757-.272-1.317-.656-1.68-.373-.363-.853-.544-1.44-.544-.608 0-1.109.192-1.504.576-.384.373-.624.923-.72 1.648zm7.83 5.04v-8.512h1.553l.048 2.112-.192-.064c.096-.469.261-.869.496-1.2.245-.331.544-.587.896-.768a2.482 2.482 0 011.152-.272c.725 0 1.317.208 1.776.624.459.405.747.965.864 1.68h-.272c.096-.501.256-.917.48-1.248.234-.341.533-.603.896-.784a2.721 2.721 0 011.232-.272c.597 0 1.104.128 1.52.384.427.245.747.608.96 1.088.224.48.336 1.067.336 1.76V318H89.42v-5.056c0-.736-.133-1.291-.4-1.664s-.672-.56-1.216-.56c-.352 0-.662.091-.928.272a1.781 1.781 0 00-.624.784c-.139.341-.208.752-.208 1.232V318h-1.616v-4.992c0-.725-.123-1.285-.368-1.68-.235-.405-.64-.608-1.216-.608a1.64 1.64 0 00-.944.272c-.256.181-.459.448-.608.8-.15.341-.224.747-.224 1.216V318h-1.696zm18.224 0v-11.36h4.24c1.301 0 2.314.315 3.04.944.725.619 1.088 1.483 1.088 2.592 0 .736-.166 1.376-.496 1.92-.331.533-.806.944-1.424 1.232-.608.277-1.344.416-2.208.416h-2.512V318h-1.728zm1.728-5.824h2.464c.778 0 1.37-.165 1.776-.496.405-.341.608-.843.608-1.504 0-.651-.203-1.136-.608-1.456-.406-.331-.998-.496-1.776-.496h-2.464v3.952zm8.471 5.824v-8.512h1.552l.064 2.256-.144-.048c.117-.768.352-1.328.704-1.68.362-.352.848-.528 1.456-.528h.816v1.52h-.816c-.427 0-.784.069-1.072.208a1.413 1.413 0 00-.656.64c-.139.288-.208.661-.208 1.12V318h-1.696zm9.16.192c-.811 0-1.52-.181-2.128-.544a3.623 3.623 0 01-1.408-1.552c-.331-.672-.496-1.456-.496-2.352 0-.907.165-1.691.496-2.352.331-.661.8-1.173 1.408-1.536.608-.373 1.317-.56 2.128-.56.811 0 1.52.187 2.128.56a3.644 3.644 0 011.408 1.536c.331.661.496 1.445.496 2.352 0 .896-.165 1.68-.496 2.352a3.623 3.623 0 01-1.408 1.552c-.608.363-1.317.544-2.128.544zm0-1.472c.725 0 1.285-.261 1.68-.784.395-.533.592-1.264.592-2.192 0-.928-.197-1.653-.592-2.176-.395-.533-.955-.8-1.68-.8-.715 0-1.275.267-1.68.8-.395.523-.592 1.248-.592 2.176 0 .928.197 1.659.592 2.192.405.523.965.784 1.68.784zM122.7 318v-8.512h1.552l.048 2.112-.192-.064a3.13 3.13 0 01.496-1.2c.245-.331.544-.587.896-.768a2.482 2.482 0 011.152-.272c.725 0 1.317.208 1.776.624.459.405.747.965.864 1.68h-.272c.096-.501.256-.917.48-1.248.235-.341.533-.603.896-.784a2.722 2.722 0 011.232-.272c.597 0 1.104.128 1.52.384.427.245.747.608.96 1.088.224.48.336 1.067.336 1.76V318h-1.696v-5.056c0-.736-.133-1.291-.4-1.664s-.672-.56-1.216-.56c-.352 0-.661.091-.928.272a1.777 1.777 0 00-.624.784c-.139.341-.208.752-.208 1.232V318h-1.616v-4.992c0-.725-.123-1.285-.368-1.68-.235-.405-.64-.608-1.216-.608a1.64 1.64 0 00-.944.272c-.256.181-.459.448-.608.8-.149.341-.224.747-.224 1.216V318H122.7zm13.859 2.4v-10.912h1.6l.048 1.824-.192-.096c.214-.629.566-1.104 1.056-1.424.491-.331 1.056-.496 1.696-.496.832 0 1.515.208 2.048.624.544.405.944.944 1.2 1.616.267.672.4 1.408.4 2.208 0 .8-.133 1.536-.4 2.208a3.636 3.636 0 01-1.2 1.632c-.533.405-1.216.608-2.048.608-.426 0-.826-.075-1.2-.224a2.817 2.817 0 01-.96-.624 2.386 2.386 0 01-.544-.976l.192-.192v4.224h-1.696zm3.904-3.68c.683 0 1.216-.261 1.6-.784.395-.523.592-1.253.592-2.192 0-.939-.197-1.669-.592-2.192-.384-.523-.917-.784-1.6-.784-.448 0-.837.112-1.168.336-.33.213-.586.544-.768.992-.181.448-.272.997-.272 1.648 0 .651.086 1.2.256 1.648.182.448.438.784.768 1.008.342.213.736.32 1.184.32zm8.626 1.28c-.811 0-1.408-.187-1.792-.56-.384-.373-.576-.955-.576-1.744v-8.208h1.696v8.08c0 .395.085.667.256.816.171.149.432.224.784.224h1.216V318h-1.584zm-3.664-7.12v-1.392h5.248v1.392h-5.248z"
                    fill="#828282"
                  />
                  <rect
                    x={36.5}
                    y={332.5}
                    width={245}
                    height={93}
                    rx={11.5}
                    fill="#212121"
                  />
                  <rect
                    x={36.5}
                    y={332.5}
                    width={245}
                    height={93}
                    rx={11.5}
                    stroke="#282828"
                  />
                  <path
                    d="M49.032 355v-8.52h5.544v1.188h-4.248v2.484h4.104v1.152h-4.104v2.508h4.344V355h-5.64zm7.18 0v-6.384h1.164l.049 1.704-.156-.084c.072-.416.208-.752.407-1.008.2-.256.444-.444.732-.564.288-.128.6-.192.936-.192.48 0 .877.108 1.188.324.32.208.56.496.72.864.168.36.252.772.252 1.236V355h-1.271v-3.72c0-.376-.04-.692-.12-.948a1.12 1.12 0 00-.396-.588c-.184-.136-.425-.204-.72-.204-.449 0-.813.148-1.093.444-.28.296-.42.728-.42 1.296V355h-1.272zm9.081 0c-.608 0-1.056-.14-1.344-.42-.288-.28-.432-.716-.432-1.308v-6.156h1.272v6.06c0 .296.064.5.192.612.128.112.324.168.588.168h.912V355h-1.188zm-2.748-5.34v-1.044h3.936v1.044h-3.936zm7.674 5.484c-.624 0-1.164-.136-1.62-.408a2.739 2.739 0 01-1.044-1.164c-.24-.504-.36-1.092-.36-1.764 0-.672.12-1.256.36-1.752a2.739 2.739 0 011.044-1.164c.448-.28.976-.42 1.584-.42.576 0 1.084.136 1.524.408.44.264.78.648 1.02 1.152.248.504.372 1.112.372 1.824v.324h-4.584c.032.624.196 1.092.492 1.404.304.312.712.468 1.224.468.376 0 .688-.088.936-.264.248-.176.42-.412.516-.708l1.32.084a2.647 2.647 0 01-.996 1.44c-.488.36-1.084.54-1.788.54zm-1.704-3.924h3.24c-.04-.568-.204-.988-.492-1.26-.28-.272-.64-.408-1.08-.408-.456 0-.832.144-1.128.432-.288.28-.468.692-.54 1.236zm5.873 3.78v-6.384h1.164l.048 1.692-.108-.036c.088-.576.264-.996.528-1.26.272-.264.636-.396 1.092-.396h.612v1.14h-.612c-.32 0-.588.052-.804.156a1.06 1.06 0 00-.492.48c-.104.216-.156.496-.156.84V355h-1.272zm10.1.144c-.6 0-1.107-.092-1.523-.276-.408-.184-.724-.436-.948-.756a2.264 2.264 0 01-.384-1.128l1.308-.06c.064.352.216.632.456.84.24.208.604.312 1.092.312.4 0 .716-.064.948-.192.232-.128.348-.332.348-.612 0-.152-.04-.28-.12-.384-.072-.112-.216-.204-.432-.276-.216-.08-.536-.156-.96-.228-.632-.12-1.128-.26-1.488-.42-.36-.16-.616-.364-.768-.612-.152-.248-.228-.548-.228-.9 0-.584.216-1.06.648-1.428.44-.368 1.072-.552 1.896-.552.552 0 1.016.096 1.392.288.376.184.668.436.876.756.216.312.352.664.408 1.056l-1.308.072a1.335 1.335 0 00-.24-.576 1.072 1.072 0 00-.456-.384 1.513 1.513 0 00-.684-.144c-.408 0-.712.08-.912.24-.2.16-.3.368-.3.624 0 .192.044.348.132.468.096.12.248.22.456.3.208.072.484.136.828.192.664.112 1.184.252 1.56.42.376.16.64.36.792.6.152.24.228.532.228.876 0 .4-.112.74-.336 1.02-.224.28-.532.496-.924.648a3.921 3.921 0 01-1.356.216zm4.065 1.656v-1.044h.78c.216 0 .376-.032.48-.096a.61.61 0 00.24-.324l.204-.528h-.396l-2.304-6.192h1.344l1.752 5.016 1.668-5.016h1.356l-2.544 7.128c-.128.368-.32.636-.576.804-.248.168-.596.252-1.044.252h-.96zm8.405-1.656c-.6 0-1.108-.092-1.524-.276-.408-.184-.724-.436-.948-.756a2.264 2.264 0 01-.384-1.128l1.308-.06c.064.352.216.632.456.84.24.208.604.312 1.092.312.4 0 .716-.064.948-.192.232-.128.348-.332.348-.612 0-.152-.04-.28-.12-.384-.072-.112-.216-.204-.432-.276-.216-.08-.536-.156-.96-.228-.632-.12-1.128-.26-1.488-.42-.36-.16-.616-.364-.768-.612-.152-.248-.228-.548-.228-.9 0-.584.216-1.06.648-1.428.44-.368 1.072-.552 1.896-.552.552 0 1.016.096 1.392.288.376.184.668.436.876.756.216.312.352.664.408 1.056l-1.308.072a1.335 1.335 0 00-.24-.576 1.072 1.072 0 00-.456-.384 1.513 1.513 0 00-.684-.144c-.408 0-.712.08-.912.24-.2.16-.3.368-.3.624 0 .192.044.348.132.468.096.12.248.22.456.3.208.072.484.136.828.192.664.112 1.184.252 1.56.42.376.16.64.36.792.6.152.24.228.532.228.876 0 .4-.112.74-.336 1.02-.224.28-.532.496-.924.648a3.921 3.921 0 01-1.356.216zm6.117-.144c-.608 0-1.056-.14-1.344-.42-.288-.28-.432-.716-.432-1.308v-6.156h1.272v6.06c0 .296.064.5.192.612.128.112.324.168.588.168h.912V355h-1.188zm-2.748-5.34v-1.044h3.936v1.044h-3.936zm7.674 5.484c-.624 0-1.164-.136-1.62-.408a2.739 2.739 0 01-1.044-1.164c-.24-.504-.36-1.092-.36-1.764 0-.672.12-1.256.36-1.752a2.739 2.739 0 011.044-1.164c.448-.28.976-.42 1.584-.42.576 0 1.084.136 1.524.408.44.264.78.648 1.02 1.152.248.504.372 1.112.372 1.824v.324h-4.584c.032.624.196 1.092.492 1.404.304.312.712.468 1.224.468.376 0 .688-.088.936-.264.248-.176.42-.412.516-.708l1.32.084a2.647 2.647 0 01-.996 1.44c-.488.36-1.084.54-1.788.54zm-1.704-3.924h3.24c-.04-.568-.204-.988-.492-1.26-.28-.272-.64-.408-1.08-.408-.456 0-.832.144-1.128.432-.288.28-.468.692-.54 1.236zm5.873 3.78v-6.384h1.164l.036 1.584-.144-.048c.072-.352.196-.652.372-.9a1.93 1.93 0 01.672-.576c.264-.136.552-.204.864-.204.544 0 .988.156 1.332.468.344.304.56.724.648 1.26h-.204c.072-.376.192-.688.36-.936.176-.256.4-.452.672-.588.272-.136.58-.204.924-.204.448 0 .828.096 1.14.288.32.184.56.456.72.816.168.36.252.8.252 1.32V355h-1.272v-3.792c0-.552-.1-.968-.3-1.248-.2-.28-.504-.42-.912-.42-.264 0-.496.068-.696.204-.2.136-.356.332-.468.588a2.453 2.453 0 00-.156.924V355h-1.212v-3.744c0-.544-.092-.964-.276-1.26-.176-.304-.48-.456-.912-.456-.272 0-.508.068-.708.204a1.364 1.364 0 00-.456.6c-.112.256-.168.56-.168.912V355h-1.272zm13.535 1.8v-8.184h1.2l.036 1.368-.144-.072c.16-.472.424-.828.792-1.068a2.222 2.222 0 011.272-.372c.624 0 1.136.156 1.536.468.408.304.708.708.9 1.212.2.504.3 1.056.3 1.656 0 .6-.1 1.152-.3 1.656a2.727 2.727 0 01-.9 1.224c-.4.304-.912.456-1.536.456a2.4 2.4 0 01-.9-.168 2.116 2.116 0 01-.72-.468 1.786 1.786 0 01-.408-.732l.144-.144v3.168h-1.272zm2.928-2.76c.512 0 .912-.196 1.2-.588.296-.392.444-.94.444-1.644s-.148-1.252-.444-1.644c-.288-.392-.688-.588-1.2-.588-.336 0-.628.084-.876.252-.248.16-.44.408-.576.744-.136.336-.204.748-.204 1.236s.064.9.192 1.236c.136.336.328.588.576.756.256.16.552.24.888.24zm4.255.96v-6.384h1.164l.048 1.692-.108-.036c.088-.576.264-.996.528-1.26.272-.264.636-.396 1.092-.396h.612v1.14h-.612c-.32 0-.588.052-.804.156a1.06 1.06 0 00-.492.48c-.104.216-.156.496-.156.84V355h-1.272zm6.87.144c-.608 0-1.14-.136-1.596-.408a2.714 2.714 0 01-1.056-1.164c-.248-.504-.372-1.092-.372-1.764 0-.68.124-1.268.372-1.764s.6-.88 1.056-1.152c.456-.28.988-.42 1.596-.42.608 0 1.14.14 1.596.42.456.272.808.656 1.056 1.152.248.496.372 1.084.372 1.764 0 .672-.124 1.26-.372 1.764s-.6.892-1.056 1.164c-.456.272-.988.408-1.596.408zm0-1.104c.544 0 .964-.196 1.26-.588.296-.4.444-.948.444-1.644s-.148-1.24-.444-1.632c-.296-.4-.716-.6-1.26-.6-.536 0-.956.2-1.26.6-.296.392-.444.936-.444 1.632 0 .696.148 1.244.444 1.644.304.392.724.588 1.26.588zm4.31.96v-6.384h1.164l.036 1.584-.144-.048c.072-.352.196-.652.372-.9a1.93 1.93 0 01.672-.576c.264-.136.552-.204.864-.204.544 0 .988.156 1.332.468.344.304.56.724.648 1.26h-.204c.072-.376.192-.688.36-.936.176-.256.4-.452.672-.588.272-.136.58-.204.924-.204.448 0 .828.096 1.14.288.32.184.56.456.72.816.168.36.252.8.252 1.32V355h-1.272v-3.792c0-.552-.1-.968-.3-1.248-.2-.28-.504-.42-.912-.42-.264 0-.496.068-.696.204-.2.136-.356.332-.468.588a2.453 2.453 0 00-.156.924V355h-1.212v-3.744c0-.544-.092-.964-.276-1.26-.176-.304-.48-.456-.912-.456-.272 0-.508.068-.708.204a1.364 1.364 0 00-.456.6c-.112.256-.168.56-.168.912V355h-1.272zm10.395 1.8v-8.184h1.2l.036 1.368-.144-.072c.16-.472.424-.828.792-1.068a2.222 2.222 0 011.272-.372c.624 0 1.136.156 1.536.468.408.304.708.708.9 1.212.2.504.3 1.056.3 1.656 0 .6-.1 1.152-.3 1.656a2.727 2.727 0 01-.9 1.224c-.4.304-.912.456-1.536.456a2.4 2.4 0 01-.9-.168 2.116 2.116 0 01-.72-.468 1.786 1.786 0 01-.408-.732l.144-.144v3.168h-1.272zm2.928-2.76c.512 0 .912-.196 1.2-.588.296-.392.444-.94.444-1.644s-.148-1.252-.444-1.644c-.288-.392-.688-.588-1.2-.588-.336 0-.628.084-.876.252-.248.16-.44.408-.576.744-.136.336-.204.748-.204 1.236s.064.9.192 1.236c.136.336.328.588.576.756.256.16.552.24.888.24zm6.469.96c-.608 0-1.056-.14-1.344-.42-.288-.28-.432-.716-.432-1.308v-6.156h1.272v6.06c0 .296.064.5.192.612.128.112.324.168.588.168h.912V355h-1.188zm-2.748-5.34v-1.044h3.936v1.044h-3.936zm5.154 5.34v-1.512h1.548V355h-1.548zm2.554 0v-1.512h1.548V355h-1.548zm2.555 0v-1.512h1.548V355h-1.548z"
                    fill="#858585"
                    fillOpacity={0.85}
                  />
                </g>
                <g filter="url(#filter1_dddd_113_58)">
                  <rect
                    x={351}
                    y={32}
                    width={278}
                    height={505}
                    rx={12}
                    fill="#131313"
                  />
                  <rect
                    x={351.5}
                    y={32.5}
                    width={277}
                    height={504}
                    rx={11.5}
                    stroke="#333"
                  />
                  <rect x={367} y={48} width={28} height={28} rx={8} fill="#1B1B1B" />
                  <g clipPath="url(#clip2_113_58)">
                    <path
                      d="M382.489 60.771L388.314 54h-1.38l-5.058 5.88-4.04-5.88h-4.66l6.109 8.89-6.109 7.102h1.381l5.341-6.21 4.267 6.21h4.659l-6.335-9.22zm-1.891 2.198l-.619-.885-4.925-7.045h2.121l3.974 5.685.619.886 5.166 7.39h-2.12l-4.216-6.03z"
                      fill="#fff"
                    />
                  </g>
                  <path
                    d="M404.208 68l3.824-5.696-3.792-5.664h2.432l2.64 4.08 2.576-4.08h2.416l-3.776 5.632L414.352 68h-2.416l-2.656-4.144L406.624 68h-2.416z"
                    fill="#fff"
                    fillOpacity={0.62}
                  />
                  <path fill="#262626" d="M351 88H629V90H351z" />
                  <path
                    d="M373 120.256c-1.099 0-2.043-.235-2.832-.704-.789-.48-1.397-1.163-1.824-2.048-.427-.885-.64-1.941-.64-3.168s.213-2.283.64-3.168c.427-.896 1.035-1.584 1.824-2.064.789-.48 1.733-.72 2.832-.72 1.109 0 2.059.24 2.848.72.8.48 1.408 1.168 1.824 2.064.427.885.64 1.941.64 3.168s-.213 2.283-.64 3.168c-.416.885-1.024 1.568-1.824 2.048-.789.469-1.739.704-2.848.704zm0-1.584c.736 0 1.365-.171 1.888-.512.533-.341.939-.832 1.216-1.472.277-.651.416-1.435.416-2.352 0-.917-.139-1.701-.416-2.352-.277-.651-.683-1.147-1.216-1.488-.523-.352-1.152-.528-1.888-.528-.725 0-1.349.176-1.872.528-.523.341-.928.837-1.216 1.488-.277.651-.416 1.435-.416 2.352 0 .917.139 1.701.416 2.352.288.64.693 1.131 1.216 1.472.523.341 1.147.512 1.872.512zm7.216 3.728v-10.912h1.6l.048 1.824-.192-.096c.213-.629.565-1.104 1.056-1.424.49-.331 1.056-.496 1.696-.496.832 0 1.514.208 2.048.624.544.405.944.944 1.2 1.616.266.672.4 1.408.4 2.208 0 .8-.134 1.536-.4 2.208a3.636 3.636 0 01-1.2 1.632c-.534.405-1.216.608-2.048.608-.427 0-.827-.075-1.2-.224a2.798 2.798 0 01-.96-.624 2.374 2.374 0 01-.544-.976l.192-.192v4.224h-1.696zm3.904-3.68c.682 0 1.216-.261 1.6-.784.394-.523.592-1.253.592-2.192 0-.939-.198-1.669-.592-2.192-.384-.523-.918-.784-1.6-.784-.448 0-.838.112-1.168.336-.331.213-.587.544-.768.992-.182.448-.272.997-.272 1.648 0 .651.085 1.2.256 1.648.181.448.437.784.768 1.008.341.213.736.32 1.184.32zm9.178 1.472c-.832 0-1.552-.181-2.16-.544-.598-.363-1.062-.88-1.392-1.552-.32-.672-.48-1.456-.48-2.352 0-.896.16-1.675.48-2.336.33-.672.794-1.189 1.392-1.552.597-.373 1.301-.56 2.112-.56.768 0 1.445.181 2.032.544.586.352 1.04.864 1.36 1.536.33.672.496 1.483.496 2.432v.432h-6.112c.042.832.261 1.456.656 1.872.405.416.949.624 1.632.624.501 0 .917-.117 1.248-.352.33-.235.56-.549.688-.944l1.76.112a3.534 3.534 0 01-1.328 1.92c-.651.48-1.446.72-2.384.72zm-2.272-5.232h4.32c-.054-.757-.272-1.317-.656-1.68-.374-.363-.854-.544-1.44-.544-.608 0-1.11.192-1.504.576-.384.373-.624.923-.72 1.648zm7.83 5.04v-8.512h1.552l.064 2.256-.144-.048c.118-.768.352-1.328.704-1.68.363-.352.848-.528 1.456-.528h.816v1.52h-.816c-.426 0-.784.069-1.072.208a1.417 1.417 0 00-.656.64c-.138.288-.208.661-.208 1.12V120h-1.696zm8.072.192c-.886 0-1.595-.203-2.128-.608-.523-.405-.784-.976-.784-1.712s.218-1.307.656-1.712c.448-.416 1.136-.715 2.064-.896l2.928-.56c0-.661-.155-1.152-.464-1.472-.31-.331-.768-.496-1.376-.496-.544 0-.971.123-1.28.368-.31.235-.523.587-.64 1.056l-1.744-.112c.16-.853.554-1.525 1.184-2.016.64-.491 1.466-.736 2.48-.736 1.152 0 2.026.309 2.624.928.608.608.912 1.467.912 2.576v3.312c0 .203.032.347.096.432.074.075.192.112.352.112h.304V120a3.96 3.96 0 01-.624.048c-.363 0-.678-.059-.944-.176a1.162 1.162 0 01-.576-.576c-.128-.277-.192-.645-.192-1.104l.176.08a2.027 2.027 0 01-.56.992 2.963 2.963 0 01-1.072.688c-.427.16-.891.24-1.392.24zm.272-1.344c.512 0 .949-.096 1.312-.288.362-.203.645-.48.848-.832.202-.352.304-.752.304-1.2v-.544l-2.496.48c-.512.096-.875.251-1.088.464-.203.203-.304.464-.304.784 0 .363.122.645.368.848.256.192.608.288 1.056.288zm9.17 1.152c-.81 0-1.408-.187-1.792-.56-.384-.373-.576-.955-.576-1.744v-8.208h1.696v8.08c0 .395.086.667.256.816.171.149.432.224.784.224h1.216V120h-1.584zm-3.664-7.12v-1.392h5.248v1.392h-5.248zm6.869 7.12v-8.512h1.696V120h-1.696zm-.032-9.744v-1.696h1.76v1.696h-1.76zm7.473 9.936c-.81 0-1.519-.181-2.127-.544a3.616 3.616 0 01-1.408-1.552c-.331-.672-.496-1.456-.496-2.352 0-.907.165-1.691.496-2.352.33-.661.8-1.173 1.408-1.536.608-.373 1.317-.56 2.127-.56.811 0 1.521.187 2.129.56a3.644 3.644 0 011.408 1.536c.33.661.496 1.445.496 2.352 0 .896-.166 1.68-.496 2.352a3.623 3.623 0 01-1.408 1.552c-.608.363-1.318.544-2.129.544zm0-1.472c.726 0 1.286-.261 1.681-.784.394-.533.592-1.264.592-2.192 0-.928-.198-1.653-.592-2.176-.395-.533-.955-.8-1.681-.8-.714 0-1.274.267-1.679.8-.395.523-.592 1.248-.592 2.176 0 .928.197 1.659.592 2.192.405.523.965.784 1.679.784zm5.747 1.28v-8.512h1.552l.064 2.272-.208-.112c.096-.555.277-1.003.544-1.344a2.39 2.39 0 01.976-.752c.384-.171.8-.256 1.248-.256.64 0 1.168.144 1.584.432.426.277.746.661.96 1.152.224.48.336 1.029.336 1.648V120h-1.696v-4.96c0-.501-.054-.923-.16-1.264-.107-.341-.283-.603-.528-.784-.246-.181-.566-.272-.96-.272-.598 0-1.083.197-1.456.592-.374.395-.56.971-.56 1.728V120h-1.696z"
                    fill="#7D7D7D"
                  />
                  <rect
                    x={367.5}
                    y={134.5}
                    width={245}
                    height={37}
                    rx={11.5}
                    fill="#212121"
                  />
                  <rect
                    x={367.5}
                    y={134.5}
                    width={245}
                    height={37}
                    rx={11.5}
                    stroke="#282828"
                  />
                  <path
                    d="M380.032 157v-8.52h3.18c.976 0 1.736.236 2.28.708.544.464.816 1.112.816 1.944 0 .552-.124 1.032-.372 1.44-.248.4-.604.708-1.068.924-.456.208-1.008.312-1.656.312h-1.884V157h-1.296zm1.296-4.368h1.848c.584 0 1.028-.124 1.332-.372.304-.256.456-.632.456-1.128 0-.488-.152-.852-.456-1.092-.304-.248-.748-.372-1.332-.372h-1.848v2.964zm8.747 4.512c-.608 0-1.14-.136-1.596-.408a2.714 2.714 0 01-1.056-1.164c-.248-.504-.372-1.092-.372-1.764 0-.68.124-1.268.372-1.764s.6-.88 1.056-1.152c.456-.28.988-.42 1.596-.42.608 0 1.14.14 1.596.42.456.272.808.656 1.056 1.152.248.496.372 1.084.372 1.764 0 .672-.124 1.26-.372 1.764s-.6.892-1.056 1.164c-.456.272-.988.408-1.596.408zm0-1.104c.544 0 .964-.196 1.26-.588.296-.4.444-.948.444-1.644s-.148-1.24-.444-1.632c-.296-.4-.716-.6-1.26-.6-.536 0-.956.2-1.26.6-.296.392-.444.936-.444 1.632 0 .696.148 1.244.444 1.644.304.392.724.588 1.26.588zm6.769 1.104c-.6 0-1.108-.092-1.524-.276-.408-.184-.724-.436-.948-.756a2.264 2.264 0 01-.384-1.128l1.308-.06c.064.352.216.632.456.84.24.208.604.312 1.092.312.4 0 .716-.064.948-.192.232-.128.348-.332.348-.612 0-.152-.04-.28-.12-.384-.072-.112-.216-.204-.432-.276-.216-.08-.536-.156-.96-.228-.632-.12-1.128-.26-1.488-.42-.36-.16-.616-.364-.768-.612-.152-.248-.228-.548-.228-.9 0-.584.216-1.06.648-1.428.44-.368 1.072-.552 1.896-.552.552 0 1.016.096 1.392.288.376.184.668.436.876.756.216.312.352.664.408 1.056l-1.308.072a1.335 1.335 0 00-.24-.576 1.072 1.072 0 00-.456-.384 1.513 1.513 0 00-.684-.144c-.408 0-.712.08-.912.24-.2.16-.3.368-.3.624 0 .192.044.348.132.468.096.12.248.22.456.3.208.072.484.136.828.192.664.112 1.184.252 1.56.42.376.16.64.36.792.6.152.24.228.532.228.876 0 .4-.112.74-.336 1.02-.224.28-.532.496-.924.648a3.921 3.921 0 01-1.356.216zm6.117-.144c-.608 0-1.056-.14-1.344-.42-.288-.28-.432-.716-.432-1.308v-6.156h1.272v6.06c0 .296.064.5.192.612.128.112.324.168.588.168h.912V157h-1.188zm-2.748-5.34v-1.044h3.936v1.044h-3.936zm9.928 5.484c-.664 0-1.196-.152-1.596-.456-.392-.304-.588-.732-.588-1.284s.164-.98.492-1.284c.336-.312.852-.536 1.548-.672l2.196-.42c0-.496-.116-.864-.348-1.104-.232-.248-.576-.372-1.032-.372-.408 0-.728.092-.96.276-.232.176-.392.44-.48.792l-1.308-.084c.12-.64.416-1.144.888-1.512.48-.368 1.1-.552 1.86-.552.864 0 1.52.232 1.968.696.456.456.684 1.1.684 1.932v2.484c0 .152.024.26.072.324.056.056.144.084.264.084h.228V157a3.05 3.05 0 01-.468.036c-.272 0-.508-.044-.708-.132a.873.873 0 01-.432-.432c-.096-.208-.144-.484-.144-.828l.132.06c-.064.28-.204.528-.42.744a2.213 2.213 0 01-.804.516c-.32.12-.668.18-1.044.18zm.204-1.008c.384 0 .712-.072.984-.216.272-.152.484-.36.636-.624a1.77 1.77 0 00.228-.9v-.408l-1.872.36c-.384.072-.656.188-.816.348a.796.796 0 00-.228.588c0 .272.092.484.276.636.192.144.456.216.792.216zm7.843.864v-8.52h1.644l3.936 6.948v-6.948h1.296V157h-1.704l-3.876-6.792V157h-1.296zm11.32.144c-.624 0-1.164-.136-1.62-.408a2.739 2.739 0 01-1.044-1.164c-.24-.504-.36-1.092-.36-1.764 0-.672.12-1.256.36-1.752a2.739 2.739 0 011.044-1.164c.448-.28.976-.42 1.584-.42.576 0 1.084.136 1.524.408.44.264.78.648 1.02 1.152.248.504.372 1.112.372 1.824v.324h-4.584c.032.624.196 1.092.492 1.404.304.312.712.468 1.224.468.376 0 .688-.088.936-.264.248-.176.42-.412.516-.708l1.32.084a2.647 2.647 0 01-.996 1.44c-.488.36-1.084.54-1.788.54zm-1.704-3.924h3.24c-.04-.568-.204-.988-.492-1.26-.28-.272-.64-.408-1.08-.408-.456 0-.832.144-1.128.432-.288.28-.468.692-.54 1.236zm6.982 3.78l-1.944-6.384h1.332l1.368 4.992 1.404-4.992h1.2l1.404 4.992 1.38-4.992h1.332L440.318 157h-1.428l-1.344-4.56-1.344 4.56h-1.416zm13.419 0v-7.332h-2.616v-1.188h6.528v1.188h-2.616V157h-1.296zm5.741 0l-1.944-6.384h1.332l1.368 4.992 1.404-4.992h1.2l1.404 4.992 1.38-4.992h1.332L459.478 157h-1.428l-1.344-4.56-1.344 4.56h-1.416zm10.941.144c-.624 0-1.164-.136-1.62-.408a2.739 2.739 0 01-1.044-1.164c-.24-.504-.36-1.092-.36-1.764 0-.672.12-1.256.36-1.752a2.739 2.739 0 011.044-1.164c.448-.28.976-.42 1.584-.42.576 0 1.084.136 1.524.408.44.264.78.648 1.02 1.152.248.504.372 1.112.372 1.824v.324h-4.584c.032.624.196 1.092.492 1.404.304.312.712.468 1.224.468.376 0 .688-.088.936-.264.248-.176.42-.412.516-.708l1.32.084a2.647 2.647 0 01-.996 1.44c-.488.36-1.084.54-1.788.54zm-1.704-3.924h3.24c-.04-.568-.204-.988-.492-1.26-.28-.272-.64-.408-1.08-.408-.456 0-.832.144-1.128.432-.288.28-.468.692-.54 1.236zm8.501 3.924c-.624 0-1.164-.136-1.62-.408a2.739 2.739 0 01-1.044-1.164c-.24-.504-.36-1.092-.36-1.764 0-.672.12-1.256.36-1.752a2.739 2.739 0 011.044-1.164c.448-.28.976-.42 1.584-.42.576 0 1.084.136 1.524.408.44.264.78.648 1.02 1.152.248.504.372 1.112.372 1.824v.324h-4.584c.032.624.196 1.092.492 1.404.304.312.712.468 1.224.468.376 0 .688-.088.936-.264.248-.176.42-.412.516-.708l1.32.084a2.647 2.647 0 01-.996 1.44c-.488.36-1.084.54-1.788.54zm-1.704-3.924h3.24c-.04-.568-.204-.988-.492-1.26-.28-.272-.64-.408-1.08-.408-.456 0-.832.144-1.128.432-.288.28-.468.692-.54 1.236zm8.087 3.78c-.608 0-1.056-.14-1.344-.42-.288-.28-.432-.716-.432-1.308v-6.156h1.272v6.06c0 .296.064.5.192.612.128.112.324.168.588.168h.912V157h-1.188zm-2.748-5.34v-1.044h3.936v1.044h-3.936z"
                    fill="#ADADAD"
                  />
                  <path
                    d="M373 206.256c-1.099 0-2.043-.235-2.832-.704-.789-.48-1.397-1.163-1.824-2.048-.427-.885-.64-1.941-.64-3.168s.213-2.283.64-3.168c.427-.896 1.035-1.584 1.824-2.064.789-.48 1.733-.72 2.832-.72 1.109 0 2.059.24 2.848.72.8.48 1.408 1.168 1.824 2.064.427.885.64 1.941.64 3.168s-.213 2.283-.64 3.168c-.416.885-1.024 1.568-1.824 2.048-.789.469-1.739.704-2.848.704zm0-1.584c.736 0 1.365-.171 1.888-.512.533-.341.939-.832 1.216-1.472.277-.651.416-1.435.416-2.352 0-.917-.139-1.701-.416-2.352-.277-.651-.683-1.147-1.216-1.488-.523-.352-1.152-.528-1.888-.528-.725 0-1.349.176-1.872.528-.523.341-.928.837-1.216 1.488-.277.651-.416 1.435-.416 2.352 0 .917.139 1.701.416 2.352.288.64.693 1.131 1.216 1.472.523.341 1.147.512 1.872.512zm7.216 3.728v-10.912h1.6l.048 1.824-.192-.096c.213-.629.565-1.104 1.056-1.424.49-.331 1.056-.496 1.696-.496.832 0 1.514.208 2.048.624.544.405.944.944 1.2 1.616.266.672.4 1.408.4 2.208 0 .8-.134 1.536-.4 2.208a3.636 3.636 0 01-1.2 1.632c-.534.405-1.216.608-2.048.608-.427 0-.827-.075-1.2-.224a2.798 2.798 0 01-.96-.624 2.374 2.374 0 01-.544-.976l.192-.192v4.224h-1.696zm3.904-3.68c.682 0 1.216-.261 1.6-.784.394-.523.592-1.253.592-2.192 0-.939-.198-1.669-.592-2.192-.384-.523-.918-.784-1.6-.784-.448 0-.838.112-1.168.336-.331.213-.587.544-.768.992-.182.448-.272.997-.272 1.648 0 .651.085 1.2.256 1.648.181.448.437.784.768 1.008.341.213.736.32 1.184.32zm9.178 1.472c-.832 0-1.552-.181-2.16-.544-.598-.363-1.062-.88-1.392-1.552-.32-.672-.48-1.456-.48-2.352 0-.896.16-1.675.48-2.336.33-.672.794-1.189 1.392-1.552.597-.373 1.301-.56 2.112-.56.768 0 1.445.181 2.032.544.586.352 1.04.864 1.36 1.536.33.672.496 1.483.496 2.432v.432h-6.112c.042.832.261 1.456.656 1.872.405.416.949.624 1.632.624.501 0 .917-.117 1.248-.352.33-.235.56-.549.688-.944l1.76.112a3.534 3.534 0 01-1.328 1.92c-.651.48-1.446.72-2.384.72zm-2.272-5.232h4.32c-.054-.757-.272-1.317-.656-1.68-.374-.363-.854-.544-1.44-.544-.608 0-1.11.192-1.504.576-.384.373-.624.923-.72 1.648zm7.83 5.04v-8.512h1.552l.064 2.256-.144-.048c.118-.768.352-1.328.704-1.68.363-.352.848-.528 1.456-.528h.816v1.52h-.816c-.426 0-.784.069-1.072.208a1.417 1.417 0 00-.656.64c-.138.288-.208.661-.208 1.12V206h-1.696zm8.072.192c-.886 0-1.595-.203-2.128-.608-.523-.405-.784-.976-.784-1.712s.218-1.307.656-1.712c.448-.416 1.136-.715 2.064-.896l2.928-.56c0-.661-.155-1.152-.464-1.472-.31-.331-.768-.496-1.376-.496-.544 0-.971.123-1.28.368-.31.235-.523.587-.64 1.056l-1.744-.112c.16-.853.554-1.525 1.184-2.016.64-.491 1.466-.736 2.48-.736 1.152 0 2.026.309 2.624.928.608.608.912 1.467.912 2.576v3.312c0 .203.032.347.096.432.074.075.192.112.352.112h.304V206a3.96 3.96 0 01-.624.048c-.363 0-.678-.059-.944-.176a1.162 1.162 0 01-.576-.576c-.128-.277-.192-.645-.192-1.104l.176.08a2.027 2.027 0 01-.56.992 2.963 2.963 0 01-1.072.688c-.427.16-.891.24-1.392.24zm.272-1.344c.512 0 .949-.096 1.312-.288.362-.203.645-.48.848-.832.202-.352.304-.752.304-1.2v-.544l-2.496.48c-.512.096-.875.251-1.088.464-.203.203-.304.464-.304.784 0 .363.122.645.368.848.256.192.608.288 1.056.288zm9.17 1.152c-.81 0-1.408-.187-1.792-.56-.384-.373-.576-.955-.576-1.744v-8.208h1.696v8.08c0 .395.086.667.256.816.171.149.432.224.784.224h1.216V206h-1.584zm-3.664-7.12v-1.392h5.248v1.392h-5.248zm6.869 7.12v-8.512h1.696V206h-1.696zm-.032-9.744v-1.696h1.76v1.696h-1.76zm7.473 9.936c-.81 0-1.519-.181-2.127-.544a3.616 3.616 0 01-1.408-1.552c-.331-.672-.496-1.456-.496-2.352 0-.907.165-1.691.496-2.352.33-.661.8-1.173 1.408-1.536.608-.373 1.317-.56 2.127-.56.811 0 1.521.187 2.129.56a3.644 3.644 0 011.408 1.536c.33.661.496 1.445.496 2.352 0 .896-.166 1.68-.496 2.352a3.623 3.623 0 01-1.408 1.552c-.608.363-1.318.544-2.129.544zm0-1.472c.726 0 1.286-.261 1.681-.784.394-.533.592-1.264.592-2.192 0-.928-.198-1.653-.592-2.176-.395-.533-.955-.8-1.681-.8-.714 0-1.274.267-1.679.8-.395.523-.592 1.248-.592 2.176 0 .928.197 1.659.592 2.192.405.523.965.784 1.679.784zm5.747 1.28v-8.512h1.552l.064 2.272-.208-.112c.096-.555.277-1.003.544-1.344a2.39 2.39 0 01.976-.752c.384-.171.8-.256 1.248-.256.64 0 1.168.144 1.584.432.426.277.746.661.96 1.152.224.48.336 1.029.336 1.648V206h-1.696v-4.96c0-.501-.054-.923-.16-1.264-.107-.341-.283-.603-.528-.784-.246-.181-.566-.272-.96-.272-.598 0-1.083.197-1.456.592-.374.395-.56.971-.56 1.728V206h-1.696z"
                    fill="#7D7D7D"
                  />
                  <rect
                    x={367.5}
                    y={220.5}
                    width={245}
                    height={37}
                    rx={11.5}
                    fill="#212121"
                  />
                  <rect
                    x={367.5}
                    y={220.5}
                    width={245}
                    height={37}
                    rx={11.5}
                    stroke="#282828"
                  />
                  <path
                    d="M406.104 243.192c-.68 0-1.272-.124-1.776-.372a2.95 2.95 0 01-1.176-1.032 3.24 3.24 0 01-.504-1.536l1.332-.084c.056.4.172.74.348 1.02.176.272.412.48.708.624.304.136.668.204 1.092.204a2.9 2.9 0 00.936-.132c.264-.096.464-.236.6-.42a1.1 1.1 0 00.204-.672c0-.24-.06-.452-.18-.636-.112-.192-.332-.364-.66-.516-.32-.16-.792-.316-1.416-.468-.68-.168-1.224-.352-1.632-.552-.408-.2-.704-.448-.888-.744-.176-.304-.264-.676-.264-1.116 0-.488.116-.916.348-1.284.24-.376.58-.668 1.02-.876.44-.208.968-.312 1.584-.312.648 0 1.2.12 1.656.36.464.24.828.568 1.092.984.272.416.44.892.504 1.428l-1.332.072a2.022 2.022 0 00-.3-.864 1.586 1.586 0 00-.648-.588c-.272-.144-.604-.216-.996-.216-.496 0-.888.116-1.176.348-.28.224-.42.524-.42.9 0 .24.056.444.168.612.12.16.328.3.624.42.304.12.732.248 1.284.384.736.168 1.32.376 1.752.624.44.24.752.524.936.852.184.328.276.7.276 1.116 0 .504-.132.944-.396 1.32-.256.368-.616.652-1.08.852-.464.2-1.004.3-1.62.3zm7.416-.048c-.624 0-1.164-.136-1.62-.408a2.739 2.739 0 01-1.044-1.164c-.24-.504-.36-1.092-.36-1.764 0-.672.12-1.256.36-1.752a2.739 2.739 0 011.044-1.164c.448-.28.976-.42 1.584-.42.576 0 1.084.136 1.524.408.44.264.78.648 1.02 1.152.248.504.372 1.112.372 1.824v.324h-4.584c.032.624.196 1.092.492 1.404.304.312.712.468 1.224.468.376 0 .688-.088.936-.264.248-.176.42-.412.516-.708l1.32.084a2.647 2.647 0 01-.996 1.44c-.488.36-1.084.54-1.788.54zm-1.704-3.924h3.24c-.04-.568-.204-.988-.492-1.26-.28-.272-.64-.408-1.08-.408-.456 0-.832.144-1.128.432-.288.28-.468.692-.54 1.236zm7.324 3.78c-.416 0-.752-.108-1.008-.324-.256-.216-.384-.56-.384-1.032v-7.164h1.272v7.044c0 .144.036.252.108.324.08.072.192.108.336.108h.504V243h-.828zm4.54.144c-.624 0-1.164-.136-1.62-.408a2.739 2.739 0 01-1.044-1.164c-.24-.504-.36-1.092-.36-1.764 0-.672.12-1.256.36-1.752a2.739 2.739 0 011.044-1.164c.448-.28.976-.42 1.584-.42.576 0 1.084.136 1.524.408.44.264.78.648 1.02 1.152.248.504.372 1.112.372 1.824v.324h-4.584c.032.624.196 1.092.492 1.404.304.312.712.468 1.224.468.376 0 .688-.088.936-.264.248-.176.42-.412.516-.708l1.32.084a2.647 2.647 0 01-.996 1.44c-.488.36-1.084.54-1.788.54zm-1.704-3.924h3.24c-.04-.568-.204-.988-.492-1.26-.28-.272-.64-.408-1.08-.408-.456 0-.832.144-1.128.432-.288.28-.468.692-.54 1.236zm8.501 3.924c-.608 0-1.14-.136-1.596-.408a2.714 2.714 0 01-1.056-1.164c-.248-.504-.372-1.092-.372-1.764 0-.672.124-1.256.372-1.752.248-.504.6-.892 1.056-1.164.456-.28.988-.42 1.596-.42.52 0 .98.092 1.38.276.408.176.736.436.984.78.256.344.42.764.492 1.26l-1.332.072c-.064-.416-.232-.732-.504-.948-.272-.224-.612-.336-1.02-.336-.536 0-.956.2-1.26.6-.296.392-.444.936-.444 1.632 0 .696.148 1.244.444 1.644.304.392.724.588 1.26.588.408 0 .748-.112 1.02-.336.272-.232.44-.58.504-1.044l1.332.072a2.885 2.885 0 01-.492 1.272c-.248.36-.576.64-.984.84-.4.2-.86.3-1.38.3zm6.23-.144c-.608 0-1.056-.14-1.344-.42-.288-.28-.432-.716-.432-1.308v-6.156h1.272v6.06c0 .296.064.5.192.612.128.112.324.168.588.168h.912V243h-1.188zm-2.748-5.34v-1.044h3.936v1.044h-3.936zm7.408 5.34l2.832-4.272-2.808-4.248h1.524l2.1 3.24 2.064-3.24h1.512l-2.808 4.224 2.844 4.296h-1.524l-2.112-3.288-2.112 3.288h-1.512zm13.032.144c-.664 0-1.196-.152-1.596-.456-.392-.304-.588-.732-.588-1.284s.164-.98.492-1.284c.336-.312.852-.536 1.548-.672l2.196-.42c0-.496-.116-.864-.348-1.104-.232-.248-.576-.372-1.032-.372-.408 0-.728.092-.96.276-.232.176-.392.44-.48.792l-1.308-.084c.12-.64.416-1.144.888-1.512.48-.368 1.1-.552 1.86-.552.864 0 1.52.232 1.968.696.456.456.684 1.1.684 1.932v2.484c0 .152.024.26.072.324.056.056.144.084.264.084h.228V243a3.05 3.05 0 01-.468.036c-.272 0-.508-.044-.708-.132a.873.873 0 01-.432-.432c-.096-.208-.144-.484-.144-.828l.132.06c-.064.28-.204.528-.42.744a2.213 2.213 0 01-.804.516c-.32.12-.668.18-1.044.18zm.204-1.008c.384 0 .712-.072.984-.216.272-.152.484-.36.636-.624a1.77 1.77 0 00.228-.9v-.408l-1.872.36c-.384.072-.656.188-.816.348a.796.796 0 00-.228.588c0 .272.092.484.276.636.192.144.456.216.792.216zm7.339 1.008c-.608 0-1.14-.136-1.596-.408a2.714 2.714 0 01-1.056-1.164c-.248-.504-.372-1.092-.372-1.764 0-.672.124-1.256.372-1.752.248-.504.6-.892 1.056-1.164.456-.28.988-.42 1.596-.42.52 0 .98.092 1.38.276.408.176.736.436.984.78.256.344.42.764.492 1.26l-1.332.072c-.064-.416-.232-.732-.504-.948-.272-.224-.612-.336-1.02-.336-.536 0-.956.2-1.26.6-.296.392-.444.936-.444 1.632 0 .696.148 1.244.444 1.644.304.392.724.588 1.26.588.408 0 .748-.112 1.02-.336.272-.232.44-.58.504-1.044l1.332.072a2.885 2.885 0 01-.492 1.272c-.248.36-.576.64-.984.84-.4.2-.86.3-1.38.3zm6.645 0c-.608 0-1.14-.136-1.596-.408a2.714 2.714 0 01-1.056-1.164c-.248-.504-.372-1.092-.372-1.764 0-.672.124-1.256.372-1.752.248-.504.6-.892 1.056-1.164.456-.28.988-.42 1.596-.42.52 0 .98.092 1.38.276.408.176.736.436.984.78.256.344.42.764.492 1.26l-1.332.072c-.064-.416-.232-.732-.504-.948-.272-.224-.612-.336-1.02-.336-.536 0-.956.2-1.26.6-.296.392-.444.936-.444 1.632 0 .696.148 1.244.444 1.644.304.392.724.588 1.26.588.408 0 .748-.112 1.02-.336.272-.232.44-.58.504-1.044l1.332.072a2.885 2.885 0 01-.492 1.272c-.248.36-.576.64-.984.84-.4.2-.86.3-1.38.3zm6.644 0c-.608 0-1.14-.136-1.596-.408a2.714 2.714 0 01-1.056-1.164c-.248-.504-.372-1.092-.372-1.764 0-.68.124-1.268.372-1.764s.6-.88 1.056-1.152c.456-.28.988-.42 1.596-.42.608 0 1.14.14 1.596.42.456.272.808.656 1.056 1.152.248.496.372 1.084.372 1.764 0 .672-.124 1.26-.372 1.764s-.6.892-1.056 1.164c-.456.272-.988.408-1.596.408zm0-1.104c.544 0 .964-.196 1.26-.588.296-.4.444-.948.444-1.644s-.148-1.24-.444-1.632c-.296-.4-.716-.6-1.26-.6-.536 0-.956.2-1.26.6-.296.392-.444.936-.444 1.632 0 .696.148 1.244.444 1.644.304.392.724.588 1.26.588zm6.41 1.104c-.64 0-1.152-.212-1.536-.636-.376-.432-.564-1.028-.564-1.788v-4.104h1.272v3.78c0 .576.1 1 .3 1.272.2.272.504.408.912.408.464 0 .824-.148 1.08-.444.264-.304.396-.728.396-1.272v-3.744h1.272V243h-1.188l-.024-1.668.18.072c-.112.56-.348.992-.708 1.296-.36.296-.824.444-1.392.444zm4.931-.144v-6.384h1.164l.048 1.704-.156-.084c.072-.416.208-.752.408-1.008.2-.256.444-.444.732-.564.288-.128.6-.192.936-.192.48 0 .876.108 1.188.324.32.208.56.496.72.864.168.36.252.772.252 1.236V243h-1.272v-3.72c0-.376-.04-.692-.12-.948a1.12 1.12 0 00-.396-.588c-.184-.136-.424-.204-.72-.204-.448 0-.812.148-1.092.444-.28.296-.42.728-.42 1.296V243h-1.272zm9.081 0c-.608 0-1.056-.14-1.344-.42-.288-.28-.432-.716-.432-1.308v-6.156h1.272v6.06c0 .296.064.5.192.612.128.112.324.168.588.168h.912V243h-1.188zm-2.748-5.34v-1.044h3.936v1.044h-3.936z"
                    fill="#ADADAD"
                  />
                  <g clipPath="url(#clip3_113_58)">
                    <rect
                      x={378}
                      y={231}
                      width={16}
                      height={16}
                      rx={8}
                      fill="#1B1B1B"
                    />
                    <path
                      d="M386.762 238.387l2.979-3.387h-.706l-2.587 2.941-2.067-2.941h-2.383l3.125 4.448-3.125 3.552h.706l2.732-3.106 2.183 3.106h2.383l-3.241-4.613h.001zm-.968 1.1l-.316-.443-2.519-3.524h1.084l2.033 2.844.317.443 2.643 3.697h-1.085l-2.157-3.017z"
                      fill="#fff"
                    />
                  </g>
                  <path
                    d="M370.68 292v-9.776h-3.488v-1.584h8.704v1.584h-3.488V292h-1.728zm7.655 0l-2.592-8.512h1.776l1.824 6.656 1.872-6.656h1.6l1.872 6.656 1.84-6.656h1.776L385.711 292h-1.904l-1.792-6.08-1.792 6.08h-1.888zm14.588.192c-.832 0-1.552-.181-2.16-.544-.598-.363-1.062-.88-1.392-1.552-.32-.672-.48-1.456-.48-2.352 0-.896.16-1.675.48-2.336.33-.672.794-1.189 1.392-1.552.597-.373 1.301-.56 2.112-.56.768 0 1.445.181 2.032.544.586.352 1.04.864 1.36 1.536.33.672.496 1.483.496 2.432v.432h-6.112c.042.832.261 1.456.656 1.872.405.416.949.624 1.632.624.501 0 .917-.117 1.248-.352.33-.235.56-.549.688-.944l1.76.112a3.534 3.534 0 01-1.328 1.92c-.651.48-1.446.72-2.384.72zm-2.272-5.232h4.32c-.054-.757-.272-1.317-.656-1.68-.374-.363-.854-.544-1.44-.544-.608 0-1.11.192-1.504.576-.384.373-.624.923-.72 1.648zm11.334 5.232c-.832 0-1.552-.181-2.16-.544-.597-.363-1.061-.88-1.392-1.552-.32-.672-.48-1.456-.48-2.352 0-.896.16-1.675.48-2.336.331-.672.795-1.189 1.392-1.552.598-.373 1.302-.56 2.112-.56.768 0 1.446.181 2.032.544.587.352 1.04.864 1.36 1.536.331.672.496 1.483.496 2.432v.432h-6.112c.043.832.262 1.456.656 1.872.406.416.95.624 1.632.624.502 0 .918-.117 1.248-.352a1.81 1.81 0 00.688-.944l1.76.112a3.529 3.529 0 01-1.328 1.92c-.65.48-1.445.72-2.384.72zm-2.272-5.232h4.32c-.053-.757-.272-1.317-.656-1.68-.373-.363-.853-.544-1.44-.544-.608 0-1.109.192-1.504.576-.384.373-.624.923-.72 1.648zm10.782 5.04c-.81 0-1.408-.187-1.792-.56-.384-.373-.576-.955-.576-1.744v-8.208h1.696v8.08c0 .395.086.667.256.816.171.149.432.224.784.224h1.216V292h-1.584zm-3.664-7.12v-1.392h5.248v1.392h-5.248zm13.333 7.12v-9.776h-3.488v-1.584h8.704v1.584h-3.488V292h-1.728zm8.837.192c-.832 0-1.552-.181-2.16-.544-.597-.363-1.061-.88-1.392-1.552-.32-.672-.48-1.456-.48-2.352 0-.896.16-1.675.48-2.336.331-.672.795-1.189 1.392-1.552.597-.373 1.301-.56 2.112-.56.768 0 1.445.181 2.032.544.587.352 1.04.864 1.36 1.536.331.672.496 1.483.496 2.432v.432h-6.112c.043.832.261 1.456.656 1.872.405.416.949.624 1.632.624.501 0 .917-.117 1.248-.352a1.81 1.81 0 00.688-.944l1.76.112a3.534 3.534 0 01-1.328 1.92c-.651.48-1.445.72-2.384.72zm-2.272-5.232h4.32c-.053-.757-.272-1.317-.656-1.68-.373-.363-.853-.544-1.44-.544-.608 0-1.109.192-1.504.576-.384.373-.624.923-.72 1.648zm6.664 5.04l3.088-4.352-2.96-4.16h1.888l2.096 3.056 2.032-3.056h1.936l-2.928 4.192 3.056 4.32h-1.888l-2.192-3.248-2.208 3.248h-1.92zm12.618 0c-.811 0-1.408-.187-1.792-.56-.384-.373-.576-.955-.576-1.744v-8.208h1.696v8.08c0 .395.085.667.256.816.171.149.432.224.784.224h1.216V292h-1.584zm-3.664-7.12v-1.392h5.248v1.392h-5.248z"
                    fill="#7D7D7D"
                  />
                  <rect
                    x={367.5}
                    y={306.5}
                    width={245}
                    height={93}
                    rx={11.5}
                    fill="#212121"
                  />
                  <rect
                    x={367.5}
                    y={306.5}
                    width={245}
                    height={93}
                    rx={11.5}
                    stroke="#282828"
                  />
                  <path
                    d="M381.712 329l-2.256-8.52h1.38l1.656 6.732 1.656-6.732h1.32l1.656 6.732 1.644-6.732h1.404l-2.268 8.52h-1.512l-1.584-6.216-1.584 6.216h-1.512zm9.508 0v-8.52h1.272v3.576l-.156-.024c.072-.36.204-.652.396-.876.192-.232.428-.404.708-.516.28-.112.588-.168.924-.168.464 0 .856.104 1.176.312.32.2.56.484.72.852.168.368.252.788.252 1.26V329h-1.272v-3.768c0-.576-.1-1-.3-1.272-.192-.28-.496-.42-.912-.42-.464 0-.836.148-1.116.444-.28.288-.42.712-.42 1.272V329h-1.272zm8.749.144c-.664 0-1.196-.152-1.596-.456-.392-.304-.588-.732-.588-1.284s.164-.98.492-1.284c.336-.312.852-.536 1.548-.672l2.196-.42c0-.496-.116-.864-.348-1.104-.232-.248-.576-.372-1.032-.372-.408 0-.728.092-.96.276-.232.176-.392.44-.48.792l-1.308-.084c.12-.64.416-1.144.888-1.512.48-.368 1.1-.552 1.86-.552.864 0 1.52.232 1.968.696.456.456.684 1.1.684 1.932v2.484c0 .152.024.26.072.324.056.056.144.084.264.084h.228V329a3.05 3.05 0 01-.468.036c-.272 0-.508-.044-.708-.132a.873.873 0 01-.432-.432c-.096-.208-.144-.484-.144-.828l.132.06c-.064.28-.204.528-.42.744a2.213 2.213 0 01-.804.516c-.32.12-.668.18-1.044.18zm.204-1.008c.384 0 .712-.072.984-.216.272-.152.484-.36.636-.624a1.77 1.77 0 00.228-.9v-.408l-1.872.36c-.384.072-.656.188-.816.348a.796.796 0 00-.228.588c0 .272.092.484.276.636.192.144.456.216.792.216zm6.878.864c-.608 0-1.056-.14-1.344-.42-.288-.28-.432-.716-.432-1.308v-6.156h1.272v6.06c0 .296.064.5.192.612.128.112.324.168.588.168h.912V329h-1.188zm-2.748-5.34v-1.044h3.936v1.044h-3.936zm4.91.216l.6-1.884h-.66v-1.512h1.548v1.332l-.756 2.064h-.732zm5.385 5.268c-.6 0-1.108-.092-1.524-.276-.408-.184-.724-.436-.948-.756a2.264 2.264 0 01-.384-1.128l1.308-.06c.064.352.216.632.456.84.24.208.604.312 1.092.312.4 0 .716-.064.948-.192.232-.128.348-.332.348-.612 0-.152-.04-.28-.12-.384-.072-.112-.216-.204-.432-.276-.216-.08-.536-.156-.96-.228-.632-.12-1.128-.26-1.488-.42-.36-.16-.616-.364-.768-.612-.152-.248-.228-.548-.228-.9 0-.584.216-1.06.648-1.428.44-.368 1.072-.552 1.896-.552.552 0 1.016.096 1.392.288.376.184.668.436.876.756.216.312.352.664.408 1.056l-1.308.072a1.335 1.335 0 00-.24-.576 1.072 1.072 0 00-.456-.384 1.513 1.513 0 00-.684-.144c-.408 0-.712.08-.912.24-.2.16-.3.368-.3.624 0 .192.044.348.132.468.096.12.248.22.456.3.208.072.484.136.828.192.664.112 1.184.252 1.56.42.376.16.64.36.792.6.152.24.228.532.228.876 0 .4-.112.74-.336 1.02-.224.28-.532.496-.924.648a3.921 3.921 0 01-1.356.216zm6.939-.144v-8.52h1.272v3.576l-.156-.024c.072-.36.204-.652.396-.876.192-.232.428-.404.708-.516.28-.112.588-.168.924-.168.464 0 .856.104 1.176.312.32.2.56.484.72.852.168.368.252.788.252 1.26V329h-1.272v-3.768c0-.576-.1-1-.3-1.272-.192-.28-.496-.42-.912-.42-.464 0-.836.148-1.116.444-.28.288-.42.712-.42 1.272V329h-1.272zm8.749.144c-.664 0-1.196-.152-1.596-.456-.392-.304-.588-.732-.588-1.284s.164-.98.492-1.284c.336-.312.852-.536 1.548-.672l2.196-.42c0-.496-.116-.864-.348-1.104-.232-.248-.576-.372-1.032-.372-.408 0-.728.092-.96.276-.232.176-.392.44-.48.792l-1.308-.084c.12-.64.416-1.144.888-1.512.48-.368 1.1-.552 1.86-.552.864 0 1.52.232 1.968.696.456.456.684 1.1.684 1.932v2.484c0 .152.024.26.072.324.056.056.144.084.264.084h.228V329a3.05 3.05 0 01-.468.036c-.272 0-.508-.044-.708-.132a.873.873 0 01-.432-.432c-.096-.208-.144-.484-.144-.828l.132.06c-.064.28-.204.528-.42.744a2.213 2.213 0 01-.804.516c-.32.12-.668.18-1.044.18zm.204-1.008c.384 0 .712-.072.984-.216.272-.152.484-.36.636-.624a1.77 1.77 0 00.228-.9v-.408l-1.872.36c-.384.072-.656.188-.816.348a.796.796 0 00-.228.588c0 .272.092.484.276.636.192.144.456.216.792.216zm4.758 2.664v-8.184h1.2l.036 1.368-.144-.072c.16-.472.424-.828.792-1.068a2.222 2.222 0 011.272-.372c.624 0 1.136.156 1.536.468.408.304.708.708.9 1.212.2.504.3 1.056.3 1.656 0 .6-.1 1.152-.3 1.656a2.727 2.727 0 01-.9 1.224c-.4.304-.912.456-1.536.456a2.4 2.4 0 01-.9-.168 2.116 2.116 0 01-.72-.468 1.786 1.786 0 01-.408-.732l.144-.144v3.168h-1.272zm2.928-2.76c.512 0 .912-.196 1.2-.588.296-.392.444-.94.444-1.644s-.148-1.252-.444-1.644c-.288-.392-.688-.588-1.2-.588-.336 0-.628.084-.876.252-.248.16-.44.408-.576.744-.136.336-.204.748-.204 1.236s.064.9.192 1.236c.136.336.328.588.576.756.256.16.552.24.888.24zm4.255 2.76v-8.184h1.2l.036 1.368-.144-.072c.16-.472.424-.828.792-1.068a2.222 2.222 0 011.272-.372c.624 0 1.136.156 1.536.468.408.304.708.708.9 1.212.2.504.3 1.056.3 1.656 0 .6-.1 1.152-.3 1.656a2.727 2.727 0 01-.9 1.224c-.4.304-.912.456-1.536.456a2.4 2.4 0 01-.9-.168 2.116 2.116 0 01-.72-.468 1.786 1.786 0 01-.408-.732l.144-.144v3.168h-1.272zm2.928-2.76c.512 0 .912-.196 1.2-.588.296-.392.444-.94.444-1.644s-.148-1.252-.444-1.644c-.288-.392-.688-.588-1.2-.588-.336 0-.628.084-.876.252-.248.16-.44.408-.576.744-.136.336-.204.748-.204 1.236s.064.9.192 1.236c.136.336.328.588.576.756.256.16.552.24.888.24zm6.884 1.104c-.624 0-1.164-.136-1.62-.408a2.739 2.739 0 01-1.044-1.164c-.24-.504-.36-1.092-.36-1.764 0-.672.12-1.256.36-1.752a2.739 2.739 0 011.044-1.164c.448-.28.976-.42 1.584-.42.576 0 1.084.136 1.524.408.44.264.78.648 1.02 1.152.248.504.372 1.112.372 1.824v.324h-4.584c.032.624.196 1.092.492 1.404.304.312.712.468 1.224.468.376 0 .688-.088.936-.264.248-.176.42-.412.516-.708l1.32.084a2.647 2.647 0 01-.996 1.44c-.488.36-1.084.54-1.788.54zm-1.704-3.924h3.24c-.04-.568-.204-.988-.492-1.26-.28-.272-.64-.408-1.08-.408-.456 0-.832.144-1.128.432-.288.28-.468.692-.54 1.236zm5.873 3.78v-6.384h1.164l.048 1.704-.156-.084c.072-.416.208-.752.408-1.008.2-.256.444-.444.732-.564.288-.128.6-.192.936-.192.48 0 .876.108 1.188.324.32.208.56.496.72.864.168.36.252.772.252 1.236V329h-1.272v-3.72c0-.376-.04-.692-.12-.948a1.12 1.12 0 00-.396-.588c-.184-.136-.424-.204-.72-.204-.448 0-.812.148-1.092.444-.28.296-.42.728-.42 1.296V329h-1.272zm6.972 0v-6.384h1.272V329h-1.272zm-.024-7.308v-1.272h1.32v1.272h-1.32zm3.2 7.308v-6.384h1.164l.048 1.704-.156-.084c.072-.416.208-.752.408-1.008.2-.256.444-.444.732-.564.288-.128.6-.192.936-.192.48 0 .876.108 1.188.324.32.208.56.496.72.864.168.36.252.772.252 1.236V329h-1.272v-3.72c0-.376-.04-.692-.12-.948a1.12 1.12 0 00-.396-.588c-.184-.136-.424-.204-.72-.204-.448 0-.812.148-1.092.444-.28.296-.42.728-.42 1.296V329h-1.272zm9.517 1.944c-.504 0-.948-.076-1.332-.228a2.442 2.442 0 01-.948-.648 2.138 2.138 0 01-.504-.96l1.32-.084c.088.264.24.472.456.624.224.16.56.24 1.008.24.528 0 .932-.112 1.212-.336.288-.224.432-.564.432-1.02v-.924a1.72 1.72 0 01-.732.78 2.233 2.233 0 01-1.128.288 2.608 2.608 0 01-1.428-.396 2.685 2.685 0 01-.972-1.092c-.232-.464-.348-1-.348-1.608 0-.616.112-1.156.336-1.62.232-.464.552-.828.96-1.092a2.565 2.565 0 011.404-.396c.456 0 .856.104 1.2.312.352.208.604.488.756.84v-1.008h1.224v5.88c0 .528-.12.972-.36 1.332a2.119 2.119 0 01-1.008.828c-.432.192-.948.288-1.548.288zm-.012-3.348c.496 0 .892-.18 1.188-.54.304-.36.46-.856.468-1.488.008-.416-.056-.772-.192-1.068a1.533 1.533 0 00-.588-.696 1.524 1.524 0 00-.876-.252c-.52 0-.924.184-1.212.552-.28.36-.42.848-.42 1.464 0 .624.144 1.12.432 1.488.296.36.696.54 1.2.54zm6.335-1.104c0-.6.088-1.068.264-1.404.184-.344.488-.636.912-.876.304-.176.536-.332.696-.468a.959.959 0 00.312-.432c.056-.152.084-.34.084-.564 0-.376-.124-.684-.372-.924-.248-.248-.596-.372-1.044-.372-.528 0-.936.14-1.224.42-.288.272-.46.672-.516 1.2l-1.344-.072c.048-.528.2-.996.456-1.404a2.686 2.686 0 011.044-.96c.448-.232.976-.348 1.584-.348.56 0 1.044.108 1.452.324.416.208.736.496.96.864.224.368.336.792.336 1.272 0 .344-.052.64-.156.888-.104.24-.268.464-.492.672-.216.2-.5.408-.852.624-.312.192-.528.4-.648.624-.112.216-.168.528-.168.936H482.4zm-.156 2.508v-1.512h1.548V329h-1.548z"
                    fill="#858585"
                    fillOpacity={0.85}
                  />
                  <path
                    d="M352 255h-3a8 8 0 00-8 8v19a8 8 0 008 8h3v-35z"
                    fill="#262626"
                  />
                </g>
                <path
                  stroke="#262626"
                  strokeWidth={2}
                  strokeLinecap="round"
                  strokeDasharray="6 6"
                  d="M326.011 273.011L340.01 273.162"
                />
                <path
                  stroke="#262626"
                  strokeWidth={2}
                  strokeLinecap="round"
                  strokeDasharray="6 6"
                  d="M326.095 438.995L326.095 272.995"
                />
              </g>
              <defs>
                <filter
                  id="filter0_dddd_113_58"
                  x={-28}
                  y={221}
                  width={389}
                  height={723}
                  filterUnits="userSpaceOnUse"
                  colorInterpolationFilters="sRGB"
                >
                  <feFlood floodOpacity={0} result="BackgroundImageFix" />
                  <feColorMatrix
                    in="SourceAlpha"
                    values="0 0 0 0 0 0 0 0 0 0 0 0 0 0 0 0 0 0 127 0"
                    result="hardAlpha"
                  />
                  <feOffset dy={7} />
                  <feGaussianBlur stdDeviation={8} />
                  <feColorMatrix values="0 0 0 0 1 0 0 0 0 1 0 0 0 0 1 0 0 0 0.2 0" />
                  <feBlend
                    in2="BackgroundImageFix"
                    result="effect1_dropShadow_113_58"
                  />
                  <feColorMatrix
                    in="SourceAlpha"
                    values="0 0 0 0 0 0 0 0 0 0 0 0 0 0 0 0 0 0 127 0"
                    result="hardAlpha"
                  />
                  <feOffset dx={2} dy={28} />
                  <feGaussianBlur stdDeviation={14} />
                  <feColorMatrix values="0 0 0 0 0 0 0 0 0 0 0 0 0 0 0 0 0 0 0.17 0" />
                  <feBlend
                    in2="effect1_dropShadow_113_58"
                    result="effect2_dropShadow_113_58"
                  />
                  <feColorMatrix
                    in="SourceAlpha"
                    values="0 0 0 0 0 0 0 0 0 0 0 0 0 0 0 0 0 0 127 0"
                    result="hardAlpha"
                  />
                  <feOffset dx={4} dy={64} />
                  <feGaussianBlur stdDeviation={19} />
                  <feColorMatrix values="0 0 0 0 0 0 0 0 0 0 0 0 0 0 0 0 0 0 0.1 0" />
                  <feBlend
                    in2="effect2_dropShadow_113_58"
                    result="effect3_dropShadow_113_58"
                  />
                  <feColorMatrix
                    in="SourceAlpha"
                    values="0 0 0 0 0 0 0 0 0 0 0 0 0 0 0 0 0 0 127 0"
                    result="hardAlpha"
                  />
                  <feOffset dx={7} dy={113} />
                  <feGaussianBlur stdDeviation={22.5} />
                  <feColorMatrix values="0 0 0 0 0 0 0 0 0 0 0 0 0 0 0 0 0 0 0.03 0" />
                  <feBlend
                    in2="effect3_dropShadow_113_58"
                    result="effect4_dropShadow_113_58"
                  />
                  <feBlend
                    in="SourceGraphic"
                    in2="effect4_dropShadow_113_58"
                    result="shape"
                  />
                </filter>
                <filter
                  id="filter1_dddd_113_58"
                  x={303}
                  y={23}
                  width={389}
                  height={672}
                  filterUnits="userSpaceOnUse"
                  colorInterpolationFilters="sRGB"
                >
                  <feFlood floodOpacity={0} result="BackgroundImageFix" />
                  <feColorMatrix
                    in="SourceAlpha"
                    values="0 0 0 0 0 0 0 0 0 0 0 0 0 0 0 0 0 0 127 0"
                    result="hardAlpha"
                  />
                  <feOffset dy={7} />
                  <feGaussianBlur stdDeviation={8} />
                  <feColorMatrix values="0 0 0 0 1 0 0 0 0 1 0 0 0 0 1 0 0 0 0.2 0" />
                  <feBlend
                    in2="BackgroundImageFix"
                    result="effect1_dropShadow_113_58"
                  />
                  <feColorMatrix
                    in="SourceAlpha"
                    values="0 0 0 0 0 0 0 0 0 0 0 0 0 0 0 0 0 0 127 0"
                    result="hardAlpha"
                  />
                  <feOffset dx={2} dy={28} />
                  <feGaussianBlur stdDeviation={14} />
                  <feColorMatrix values="0 0 0 0 0 0 0 0 0 0 0 0 0 0 0 0 0 0 0.17 0" />
                  <feBlend
                    in2="effect1_dropShadow_113_58"
                    result="effect2_dropShadow_113_58"
                  />
                  <feColorMatrix
                    in="SourceAlpha"
                    values="0 0 0 0 0 0 0 0 0 0 0 0 0 0 0 0 0 0 127 0"
                    result="hardAlpha"
                  />
                  <feOffset dx={4} dy={64} />
                  <feGaussianBlur stdDeviation={19} />
                  <feColorMatrix values="0 0 0 0 0 0 0 0 0 0 0 0 0 0 0 0 0 0 0.1 0" />
                  <feBlend
                    in2="effect2_dropShadow_113_58"
                    result="effect3_dropShadow_113_58"
                  />
                  <feColorMatrix
                    in="SourceAlpha"
                    values="0 0 0 0 0 0 0 0 0 0 0 0 0 0 0 0 0 0 127 0"
                    result="hardAlpha"
                  />
                  <feOffset dx={7} dy={113} />
                  <feGaussianBlur stdDeviation={22.5} />
                  <feColorMatrix values="0 0 0 0 0 0 0 0 0 0 0 0 0 0 0 0 0 0 0.03 0" />
                  <feBlend
                    in2="effect3_dropShadow_113_58"
                    result="effect4_dropShadow_113_58"
                  />
                  <feBlend
                    in="SourceGraphic"
                    in2="effect4_dropShadow_113_58"
                    result="shape"
                  />
                </filter>
                <clipPath id="clip0_113_58">
                  <path fill="#fff" d="M0 0H535V363H0z" />
                </clipPath>
                <clipPath id="clip1_113_58">
                  <path fill="#fff" transform="translate(42 252)" d="M0 0H16V16H0z" />
                </clipPath>
                <clipPath id="clip2_113_58">
                  <path
                    fill="#fff"
                    transform="translate(373.176 54)"
                    d="M0 0H15.6479V16H0z"
                  />
                </clipPath>
                <clipPath id="clip3_113_58">
                  <rect x={378} y={231} width={16} height={16} rx={8} fill="#fff" />
                </clipPath>
              </defs>
            </svg>