<svg
            className='w-full h-full'
        fill="none"
        xmlns="http://www.w3.org/2000/svg"
      >
        <g clipPath="url(#clip0_113_57)">
          <g filter="url(#filter0_dddd_113_57)">
            <rect
              x={384}
              y={141}
              width={278}
              height={556}
              rx={12}
              fill="#131313"
            />
            <rect
              x={384.5}
              y={141.5}
              width={277}
              height={555}
              rx={11.5}
              stroke="#333"
            />
            <rect x={400} y={157} width={28} height={28} rx={8} fill="#802FFF" />
            <g
              clipPath="url(#clip1_113_57)"
              stroke="#fff"
              strokeWidth={1.33333}
              strokeLinecap="round"
              strokeLinejoin="round"
            >
              <path d="M418 169h-8a2.667 2.667 0 00-2.667 2.667v4a2.667 2.667 0 002.667 2.666h8a2.667 2.667 0 002.667-2.666v-4A2.667 2.667 0 00418 169zM414 166.333a1.333 1.333 0 10.001-2.667 1.333 1.333 0 00-.001 2.667zM414 166.333V169m-2 5.333V173m4 0v1.333" />
            </g>
            <path
              d="M437.304 177l4.096-11.36h2.544L448.04 177h-2.176l-.944-2.688h-4.496L439.48 177h-2.176zm3.728-4.464h3.28l-1.632-4.8-1.648 4.8zm11.72 7.056c-.746 0-1.386-.101-1.92-.304-.533-.203-.965-.491-1.296-.864a3.085 3.085 0 01-.672-1.264l2.112-.144c.107.32.288.571.544.752.267.181.678.272 1.232.272.63 0 1.115-.144 1.456-.432.342-.277.512-.715.512-1.312v-1.088c-.202.416-.528.752-.976 1.008a3.082 3.082 0 01-1.504.368c-.704 0-1.333-.171-1.888-.512a3.624 3.624 0 01-1.28-1.456c-.309-.629-.464-1.355-.464-2.176 0-.821.15-1.541.448-2.16.31-.629.736-1.12 1.28-1.472.544-.363 1.168-.544 1.872-.544.619 0 1.152.139 1.6.416.448.277.774.645.976 1.104v-1.328h2v7.792c0 .725-.17 1.339-.512 1.84-.33.501-.8.875-1.408 1.12-.597.256-1.301.384-2.112.384zm-.032-4.608c.608 0 1.094-.224 1.456-.672.363-.459.55-1.088.56-1.888.011-.533-.069-.987-.24-1.36a1.88 1.88 0 00-.704-.88c-.298-.213-.656-.32-1.072-.32-.629 0-1.12.235-1.472.704-.341.459-.512 1.077-.512 1.856 0 .779.176 1.403.528 1.872.363.459.848.688 1.456.688zm9.846 2.208c-.853 0-1.595-.181-2.224-.544a3.76 3.76 0 01-1.456-1.568c-.341-.672-.512-1.456-.512-2.352 0-.896.171-1.675.512-2.336a3.788 3.788 0 011.44-1.568c.629-.373 1.36-.56 2.192-.56.811 0 1.52.181 2.128.544.619.363 1.093.885 1.424 1.568.331.683.496 1.504.496 2.464v.464h-6.064c.043.747.245 1.312.608 1.696.373.373.864.56 1.472.56.459 0 .837-.101 1.136-.304a1.63 1.63 0 00.64-.88l2.096.128a3.464 3.464 0 01-1.392 1.968c-.683.48-1.515.72-2.496.72zm-2.064-5.264h3.952c-.043-.693-.24-1.205-.592-1.536-.352-.341-.8-.512-1.344-.512s-.997.176-1.36.528c-.352.352-.571.859-.656 1.52zm7.665 5.072v-8.544h1.856l.08 2.4-.24-.096c.085-.597.261-1.077.528-1.44s.592-.629.976-.8a3.07 3.07 0 011.264-.256c.629 0 1.157.139 1.584.416.437.277.768.661.992 1.152.224.48.336 1.04.336 1.68V177h-2.048v-4.832c0-.48-.048-.885-.144-1.216-.096-.331-.256-.581-.48-.752-.213-.181-.501-.272-.864-.272-.544 0-.981.192-1.312.576-.32.384-.48.939-.48 1.664V177h-2.048zm12.44 0c-.854 0-1.483-.197-1.888-.592-.395-.395-.592-1.013-.592-1.856v-8.096h2.047v7.904c0 .395.086.672.257.832.17.149.437.224.8.224h1.2V177h-1.824zm-3.824-6.96v-1.584h5.648v1.584h-5.648z"
              fill="#fff"
              fillOpacity={0.62}
            />
            <path fill="#262626" d="M384 197H662V199H384z" />
            <path
              d="M405.472 229.256c-.907 0-1.696-.165-2.368-.496a3.937 3.937 0 01-1.568-1.376c-.384-.587-.608-1.269-.672-2.048l1.776-.112c.075.533.229.987.464 1.36.235.363.549.64.944.832.405.181.891.272 1.456.272.491 0 .907-.059 1.248-.176.352-.128.619-.315.8-.56.181-.245.272-.544.272-.896 0-.32-.08-.603-.24-.848-.149-.256-.443-.485-.88-.688-.427-.213-1.056-.421-1.888-.624-.907-.224-1.632-.469-2.176-.736-.544-.267-.939-.597-1.184-.992-.235-.405-.352-.901-.352-1.488 0-.651.155-1.221.464-1.712.32-.501.773-.891 1.36-1.168.587-.277 1.291-.416 2.112-.416.864 0 1.6.16 2.208.48a3.69 3.69 0 011.456 1.312c.363.555.587 1.189.672 1.904l-1.776.096a2.699 2.699 0 00-.4-1.152 2.11 2.11 0 00-.864-.784c-.363-.192-.805-.288-1.328-.288-.661 0-1.184.155-1.568.464-.373.299-.56.699-.56 1.2 0 .32.075.592.224.816.16.213.437.4.832.56.405.16.976.331 1.712.512.981.224 1.76.501 2.336.832.587.32 1.003.699 1.248 1.136.245.437.368.933.368 1.488 0 .672-.176 1.259-.528 1.76-.341.491-.821.869-1.44 1.136-.619.267-1.339.4-2.16.4zm6.411 2.144v-1.392h1.04c.288 0 .501-.043.64-.128s.245-.229.32-.432l.272-.704h-.528l-3.072-8.256h1.792l2.336 6.688 2.224-6.688h1.808l-3.392 9.504c-.171.491-.427.848-.768 1.072-.331.224-.795.336-1.392.336h-1.28zm11.206-2.208c-.8 0-1.477-.123-2.032-.368-.544-.245-.965-.581-1.264-1.008a3.029 3.029 0 01-.512-1.504l1.744-.08c.086.469.288.843.608 1.12.32.277.806.416 1.456.416.534 0 .955-.085 1.264-.256.31-.171.464-.443.464-.816a.813.813 0 00-.16-.512c-.096-.149-.288-.272-.576-.368-.288-.107-.714-.208-1.28-.304-.842-.16-1.504-.347-1.984-.56-.48-.213-.821-.485-1.024-.816-.202-.331-.304-.731-.304-1.2 0-.779.288-1.413.864-1.904.587-.491 1.43-.736 2.528-.736.736 0 1.355.128 1.856.384.502.245.891.581 1.168 1.008.288.416.47.885.544 1.408l-1.744.096a1.773 1.773 0 00-.32-.768 1.425 1.425 0 00-.608-.512 2.018 2.018 0 00-.912-.192c-.544 0-.949.107-1.216.32-.266.213-.4.491-.4.832 0 .256.059.464.176.624.128.16.331.293.608.4.278.096.646.181 1.104.256.886.149 1.579.336 2.08.56.502.213.854.48 1.056.8.203.32.304.709.304 1.168 0 .533-.149.987-.448 1.36-.298.373-.709.661-1.232.864-.522.192-1.125.288-1.808.288zm8.156-.192c-.81 0-1.408-.187-1.792-.56-.384-.373-.576-.955-.576-1.744v-8.208h1.696v8.08c0 .395.086.667.256.816.171.149.432.224.784.224h1.216V229h-1.584zm-3.664-7.12v-1.392h5.248v1.392h-5.248zm10.232 7.312c-.832 0-1.552-.181-2.16-.544-.597-.363-1.061-.88-1.392-1.552-.32-.672-.48-1.456-.48-2.352 0-.896.16-1.675.48-2.336.331-.672.795-1.189 1.392-1.552.598-.373 1.302-.56 2.112-.56.768 0 1.446.181 2.032.544.587.352 1.04.864 1.36 1.536.331.672.496 1.483.496 2.432v.432h-6.112c.043.832.262 1.456.656 1.872.406.416.95.624 1.632.624.502 0 .918-.117 1.248-.352a1.81 1.81 0 00.688-.944l1.76.112a3.529 3.529 0 01-1.328 1.92c-.65.48-1.445.72-2.384.72zm-2.272-5.232h4.32c-.053-.757-.272-1.317-.656-1.68-.373-.363-.853-.544-1.44-.544-.608 0-1.109.192-1.504.576-.384.373-.624.923-.72 1.648zm7.831 5.04v-8.512h1.552l.048 2.112-.192-.064a3.13 3.13 0 01.496-1.2c.245-.331.544-.587.896-.768a2.482 2.482 0 011.152-.272c.725 0 1.317.208 1.776.624.459.405.747.965.864 1.68h-.272c.096-.501.256-.917.48-1.248.235-.341.533-.603.896-.784a2.722 2.722 0 011.232-.272c.597 0 1.104.128 1.52.384.427.245.747.608.96 1.088.224.48.336 1.067.336 1.76V229h-1.696v-5.056c0-.736-.133-1.291-.4-1.664s-.672-.56-1.216-.56c-.352 0-.661.091-.928.272a1.777 1.777 0 00-.624.784c-.139.341-.208.752-.208 1.232V229h-1.616v-4.992c0-.725-.123-1.285-.368-1.68-.235-.405-.64-.608-1.216-.608a1.64 1.64 0 00-.944.272c-.256.181-.459.448-.608.8-.149.341-.224.747-.224 1.216V229h-1.696zm18.223 0v-11.36h4.24c1.301 0 2.314.315 3.04.944.725.619 1.088 1.483 1.088 2.592 0 .736-.166 1.376-.496 1.92-.331.533-.806.944-1.424 1.232-.608.277-1.344.416-2.208.416h-2.512V229h-1.728zm1.728-5.824h2.464c.778 0 1.37-.165 1.776-.496.405-.341.608-.843.608-1.504 0-.651-.203-1.136-.608-1.456-.406-.331-.998-.496-1.776-.496h-2.464v3.952zm8.471 5.824v-8.512h1.552l.064 2.256-.144-.048c.117-.768.352-1.328.704-1.68.362-.352.848-.528 1.456-.528h.816v1.52h-.816c-.427 0-.784.069-1.072.208a1.413 1.413 0 00-.656.64c-.139.288-.208.661-.208 1.12V229h-1.696zm9.16.192c-.811 0-1.52-.181-2.128-.544a3.623 3.623 0 01-1.408-1.552c-.331-.672-.496-1.456-.496-2.352 0-.907.165-1.691.496-2.352.331-.661.8-1.173 1.408-1.536.608-.373 1.317-.56 2.128-.56.811 0 1.52.187 2.128.56a3.644 3.644 0 011.408 1.536c.331.661.496 1.445.496 2.352 0 .896-.165 1.68-.496 2.352a3.623 3.623 0 01-1.408 1.552c-.608.363-1.317.544-2.128.544zm0-1.472c.725 0 1.285-.261 1.68-.784.395-.533.592-1.264.592-2.192 0-.928-.197-1.653-.592-2.176-.395-.533-.955-.8-1.68-.8-.715 0-1.275.267-1.68.8-.395.523-.592 1.248-.592 2.176 0 .928.197 1.659.592 2.192.405.523.965.784 1.68.784zM486.7 229v-8.512h1.552l.048 2.112-.192-.064a3.13 3.13 0 01.496-1.2c.245-.331.544-.587.896-.768a2.482 2.482 0 011.152-.272c.725 0 1.317.208 1.776.624.459.405.747.965.864 1.68h-.272c.096-.501.256-.917.48-1.248.235-.341.533-.603.896-.784a2.722 2.722 0 011.232-.272c.597 0 1.104.128 1.52.384.427.245.747.608.96 1.088.224.48.336 1.067.336 1.76V229h-1.696v-5.056c0-.736-.133-1.291-.4-1.664s-.672-.56-1.216-.56c-.352 0-.661.091-.928.272a1.777 1.777 0 00-.624.784c-.139.341-.208.752-.208 1.232V229h-1.616v-4.992c0-.725-.123-1.285-.368-1.68-.235-.405-.64-.608-1.216-.608a1.64 1.64 0 00-.944.272c-.256.181-.459.448-.608.8-.149.341-.224.747-.224 1.216V229H486.7zm13.859 2.4v-10.912h1.6l.048 1.824-.192-.096c.214-.629.566-1.104 1.056-1.424.491-.331 1.056-.496 1.696-.496.832 0 1.515.208 2.048.624.544.405.944.944 1.2 1.616.267.672.4 1.408.4 2.208 0 .8-.133 1.536-.4 2.208a3.636 3.636 0 01-1.2 1.632c-.533.405-1.216.608-2.048.608-.426 0-.826-.075-1.2-.224a2.817 2.817 0 01-.96-.624 2.386 2.386 0 01-.544-.976l.192-.192v4.224h-1.696zm3.904-3.68c.683 0 1.216-.261 1.6-.784.395-.523.592-1.253.592-2.192 0-.939-.197-1.669-.592-2.192-.384-.523-.917-.784-1.6-.784-.448 0-.837.112-1.168.336-.33.213-.586.544-.768.992-.181.448-.272.997-.272 1.648 0 .651.086 1.2.256 1.648.182.448.438.784.768 1.008.342.213.736.32 1.184.32zm8.626 1.28c-.811 0-1.408-.187-1.792-.56-.384-.373-.576-.955-.576-1.744v-8.208h1.696v8.08c0 .395.085.667.256.816.171.149.432.224.784.224h1.216V229h-1.584zm-3.664-7.12v-1.392h5.248v1.392h-5.248zM405.552 371.256c-.896 0-1.68-.171-2.352-.512a3.758 3.758 0 01-1.536-1.488c-.352-.64-.528-1.397-.528-2.272v-7.36h1.728v7.36c0 .864.235 1.531.704 2 .469.459 1.131.688 1.984.688s1.515-.229 1.984-.688c.469-.469.704-1.136.704-2v-7.36h1.728v7.36c0 .875-.181 1.632-.544 2.272a3.653 3.653 0 01-1.52 1.488c-.661.341-1.445.512-2.352.512zm10.037-.064c-.8 0-1.477-.123-2.032-.368-.544-.245-.965-.581-1.264-1.008a3.029 3.029 0 01-.512-1.504l1.744-.08c.086.469.288.843.608 1.12.32.277.806.416 1.456.416.534 0 .955-.085 1.264-.256.31-.171.464-.443.464-.816a.813.813 0 00-.16-.512c-.096-.149-.288-.272-.576-.368-.288-.107-.714-.208-1.28-.304-.842-.16-1.504-.347-1.984-.56-.48-.213-.821-.485-1.024-.816-.202-.331-.304-.731-.304-1.2 0-.779.288-1.413.864-1.904.587-.491 1.43-.736 2.528-.736.736 0 1.355.128 1.856.384.502.245.891.581 1.168 1.008.288.416.47.885.544 1.408l-1.744.096a1.773 1.773 0 00-.32-.768 1.425 1.425 0 00-.608-.512 2.018 2.018 0 00-.912-.192c-.544 0-.949.107-1.216.32-.266.213-.4.491-.4.832 0 .256.059.464.176.624.128.16.331.293.608.4.278.096.646.181 1.104.256.886.149 1.579.336 2.08.56.502.213.854.48 1.056.8.203.32.304.709.304 1.168 0 .533-.149.987-.448 1.36-.298.373-.709.661-1.232.864-.522.192-1.125.288-1.808.288zm8.709 0c-.832 0-1.552-.181-2.16-.544-.598-.363-1.062-.88-1.392-1.552-.32-.672-.48-1.456-.48-2.352 0-.896.16-1.675.48-2.336.33-.672.794-1.189 1.392-1.552.597-.373 1.301-.56 2.112-.56.768 0 1.445.181 2.032.544.586.352 1.04.864 1.36 1.536.33.672.496 1.483.496 2.432v.432h-6.112c.042.832.261 1.456.656 1.872.405.416.949.624 1.632.624.501 0 .917-.117 1.248-.352.33-.235.56-.549.688-.944l1.76.112a3.534 3.534 0 01-1.328 1.92c-.651.48-1.446.72-2.384.72zm-2.272-5.232h4.32c-.054-.757-.272-1.317-.656-1.68-.374-.363-.854-.544-1.44-.544-.608 0-1.11.192-1.504.576-.384.373-.624.923-.72 1.648zm7.83 5.04v-8.512h1.552l.064 2.256-.144-.048c.118-.768.352-1.328.704-1.68.363-.352.848-.528 1.456-.528h.816v1.52h-.816c-.426 0-.784.069-1.072.208a1.417 1.417 0 00-.656.64c-.138.288-.208.661-.208 1.12V371h-1.696zm10.364 0v-11.36h4.24c1.301 0 2.314.315 3.04.944.725.619 1.088 1.483 1.088 2.592 0 .736-.166 1.376-.496 1.92-.331.533-.806.944-1.424 1.232-.608.277-1.344.416-2.208.416h-2.512V371h-1.728zm1.728-5.824h2.464c.778 0 1.37-.165 1.776-.496.405-.341.608-.843.608-1.504 0-.651-.203-1.136-.608-1.456-.406-.331-.998-.496-1.776-.496h-2.464v3.952zm8.471 5.824v-8.512h1.552l.064 2.256-.144-.048c.117-.768.352-1.328.704-1.68.362-.352.848-.528 1.456-.528h.816v1.52h-.816c-.427 0-.784.069-1.072.208a1.413 1.413 0 00-.656.64c-.139.288-.208.661-.208 1.12V371h-1.696zm9.16.192c-.811 0-1.52-.181-2.128-.544a3.623 3.623 0 01-1.408-1.552c-.331-.672-.496-1.456-.496-2.352 0-.907.165-1.691.496-2.352.331-.661.8-1.173 1.408-1.536.608-.373 1.317-.56 2.128-.56.811 0 1.52.187 2.128.56a3.644 3.644 0 011.408 1.536c.331.661.496 1.445.496 2.352 0 .896-.165 1.68-.496 2.352a3.623 3.623 0 01-1.408 1.552c-.608.363-1.317.544-2.128.544zm0-1.472c.725 0 1.285-.261 1.68-.784.395-.533.592-1.264.592-2.192 0-.928-.197-1.653-.592-2.176-.395-.533-.955-.8-1.68-.8-.715 0-1.275.267-1.68.8-.395.523-.592 1.248-.592 2.176 0 .928.197 1.659.592 2.192.405.523.965.784 1.68.784zm5.746 1.28v-8.512h1.552l.048 2.112-.192-.064a3.13 3.13 0 01.496-1.2c.245-.331.544-.587.896-.768a2.482 2.482 0 011.152-.272c.725 0 1.317.208 1.776.624.459.405.747.965.864 1.68h-.272c.096-.501.256-.917.48-1.248.235-.341.533-.603.896-.784a2.722 2.722 0 011.232-.272c.597 0 1.104.128 1.52.384.427.245.747.608.96 1.088.224.48.336 1.067.336 1.76V371h-1.696v-5.056c0-.736-.133-1.291-.4-1.664s-.672-.56-1.216-.56c-.352 0-.661.091-.928.272a1.777 1.777 0 00-.624.784c-.139.341-.208.752-.208 1.232V371h-1.616v-4.992c0-.725-.123-1.285-.368-1.68-.235-.405-.64-.608-1.216-.608a1.64 1.64 0 00-.944.272c-.256.181-.459.448-.608.8-.149.341-.224.747-.224 1.216V371h-1.696zm13.859 2.4v-10.912h1.6l.048 1.824-.192-.096c.214-.629.566-1.104 1.056-1.424.491-.331 1.056-.496 1.696-.496.832 0 1.515.208 2.048.624.544.405.944.944 1.2 1.616.267.672.4 1.408.4 2.208 0 .8-.133 1.536-.4 2.208a3.636 3.636 0 01-1.2 1.632c-.533.405-1.216.608-2.048.608-.426 0-.826-.075-1.2-.224a2.817 2.817 0 01-.96-.624 2.386 2.386 0 01-.544-.976l.192-.192v4.224h-1.696zm3.904-3.68c.683 0 1.216-.261 1.6-.784.395-.523.592-1.253.592-2.192 0-.939-.197-1.669-.592-2.192-.384-.523-.917-.784-1.6-.784-.448 0-.837.112-1.168.336-.33.213-.586.544-.768.992-.181.448-.272.997-.272 1.648 0 .651.086 1.2.256 1.648.182.448.438.784.768 1.008.342.213.736.32 1.184.32zm8.626 1.28c-.811 0-1.408-.187-1.792-.56-.384-.373-.576-.955-.576-1.744v-8.208h1.696v8.08c0 .395.085.667.256.816.171.149.432.224.784.224h1.216V371h-1.584zm-3.664-7.12v-1.392h5.248v1.392h-5.248zm10.008 7.312c-.8 0-1.477-.123-2.032-.368-.544-.245-.965-.581-1.264-1.008a3.02 3.02 0 01-.512-1.504l1.744-.08c.085.469.288.843.608 1.12.32.277.805.416 1.456.416.533 0 .955-.085 1.264-.256.309-.171.464-.443.464-.816a.813.813 0 00-.16-.512c-.096-.149-.288-.272-.576-.368-.288-.107-.715-.208-1.28-.304-.843-.16-1.504-.347-1.984-.56-.48-.213-.821-.485-1.024-.816-.203-.331-.304-.731-.304-1.2 0-.779.288-1.413.864-1.904.587-.491 1.429-.736 2.528-.736.736 0 1.355.128 1.856.384.501.245.891.581 1.168 1.008.288.416.469.885.544 1.408l-1.744.096a1.773 1.773 0 00-.32-.768 1.425 1.425 0 00-.608-.512 2.018 2.018 0 00-.912-.192c-.544 0-.949.107-1.216.32-.267.213-.4.491-.4.832 0 .256.059.464.176.624.128.16.331.293.608.4.277.096.645.181 1.104.256.885.149 1.579.336 2.08.56.501.213.853.48 1.056.8.203.32.304.709.304 1.168 0 .533-.149.987-.448 1.36-.299.373-.709.661-1.232.864-.523.192-1.125.288-1.808.288z"
              fill="#828282"
            />
            <rect
              x={400.5}
              y={243.5}
              width={245}
              height={93}
              rx={11.5}
              fill="#212121"
            />
            <rect
              x={400.5}
              y={243.5}
              width={245}
              height={93}
              rx={11.5}
              stroke="#282828"
            />
            <path
              d="M413.032 266v-8.52h5.544v1.188h-4.248v2.484h4.104v1.152h-4.104v2.508h4.344V266h-5.64zm7.181 0v-6.384h1.164l.048 1.704-.156-.084c.072-.416.208-.752.408-1.008.2-.256.444-.444.732-.564.288-.128.6-.192.936-.192.48 0 .876.108 1.188.324.32.208.56.496.72.864.168.36.252.772.252 1.236V266h-1.272v-3.72c0-.376-.04-.692-.12-.948a1.12 1.12 0 00-.396-.588c-.184-.136-.424-.204-.72-.204-.448 0-.812.148-1.092.444-.28.296-.42.728-.42 1.296V266h-1.272zm9.08 0c-.608 0-1.056-.14-1.344-.42-.288-.28-.432-.716-.432-1.308v-6.156h1.272v6.06c0 .296.064.5.192.612.128.112.324.168.588.168h.912V266h-1.188zm-2.748-5.34v-1.044h3.936v1.044h-3.936zm7.674 5.484c-.624 0-1.164-.136-1.62-.408a2.739 2.739 0 01-1.044-1.164c-.24-.504-.36-1.092-.36-1.764 0-.672.12-1.256.36-1.752a2.739 2.739 0 011.044-1.164c.448-.28.976-.42 1.584-.42.576 0 1.084.136 1.524.408.44.264.78.648 1.02 1.152.248.504.372 1.112.372 1.824v.324h-4.584c.032.624.196 1.092.492 1.404.304.312.712.468 1.224.468.376 0 .688-.088.936-.264.248-.176.42-.412.516-.708l1.32.084a2.647 2.647 0 01-.996 1.44c-.488.36-1.084.54-1.788.54zm-1.704-3.924h3.24c-.04-.568-.204-.988-.492-1.26-.28-.272-.64-.408-1.08-.408-.456 0-.832.144-1.128.432-.288.28-.468.692-.54 1.236zm5.873 3.78v-6.384h1.164l.048 1.692-.108-.036c.088-.576.264-.996.528-1.26.272-.264.636-.396 1.092-.396h.612v1.14h-.612c-.32 0-.588.052-.804.156a1.06 1.06 0 00-.492.48c-.104.216-.156.496-.156.84V266h-1.272zm10.101.144c-.6 0-1.108-.092-1.524-.276-.408-.184-.724-.436-.948-.756a2.264 2.264 0 01-.384-1.128l1.308-.06c.064.352.216.632.456.84.24.208.604.312 1.092.312.4 0 .716-.064.948-.192.232-.128.348-.332.348-.612 0-.152-.04-.28-.12-.384-.072-.112-.216-.204-.432-.276-.216-.08-.536-.156-.96-.228-.632-.12-1.128-.26-1.488-.42-.36-.16-.616-.364-.768-.612-.152-.248-.228-.548-.228-.9 0-.584.216-1.06.648-1.428.44-.368 1.072-.552 1.896-.552.552 0 1.016.096 1.392.288.376.184.668.436.876.756.216.312.352.664.408 1.056l-1.308.072a1.335 1.335 0 00-.24-.576 1.072 1.072 0 00-.456-.384 1.513 1.513 0 00-.684-.144c-.408 0-.712.08-.912.24-.2.16-.3.368-.3.624 0 .192.044.348.132.468.096.12.248.22.456.3.208.072.484.136.828.192.664.112 1.184.252 1.56.42.376.16.64.36.792.6.152.24.228.532.228.876 0 .4-.112.74-.336 1.02-.224.28-.532.496-.924.648a3.921 3.921 0 01-1.356.216zm4.064 1.656v-1.044h.78c.216 0 .376-.032.48-.096a.61.61 0 00.24-.324l.204-.528h-.396l-2.304-6.192h1.344l1.752 5.016 1.668-5.016h1.356l-2.544 7.128c-.128.368-.32.636-.576.804-.248.168-.596.252-1.044.252h-.96zm8.405-1.656c-.6 0-1.108-.092-1.524-.276-.408-.184-.724-.436-.948-.756a2.264 2.264 0 01-.384-1.128l1.308-.06c.064.352.216.632.456.84.24.208.604.312 1.092.312.4 0 .716-.064.948-.192.232-.128.348-.332.348-.612 0-.152-.04-.28-.12-.384-.072-.112-.216-.204-.432-.276-.216-.08-.536-.156-.96-.228-.632-.12-1.128-.26-1.488-.42-.36-.16-.616-.364-.768-.612-.152-.248-.228-.548-.228-.9 0-.584.216-1.06.648-1.428.44-.368 1.072-.552 1.896-.552.552 0 1.016.096 1.392.288.376.184.668.436.876.756.216.312.352.664.408 1.056l-1.308.072a1.335 1.335 0 00-.24-.576 1.072 1.072 0 00-.456-.384 1.513 1.513 0 00-.684-.144c-.408 0-.712.08-.912.24-.2.16-.3.368-.3.624 0 .192.044.348.132.468.096.12.248.22.456.3.208.072.484.136.828.192.664.112 1.184.252 1.56.42.376.16.64.36.792.6.152.24.228.532.228.876 0 .4-.112.74-.336 1.02-.224.28-.532.496-.924.648a3.921 3.921 0 01-1.356.216zm6.117-.144c-.608 0-1.056-.14-1.344-.42-.288-.28-.432-.716-.432-1.308v-6.156h1.272v6.06c0 .296.064.5.192.612.128.112.324.168.588.168h.912V266h-1.188zm-2.748-5.34v-1.044h3.936v1.044h-3.936zm7.674 5.484c-.624 0-1.164-.136-1.62-.408a2.739 2.739 0 01-1.044-1.164c-.24-.504-.36-1.092-.36-1.764 0-.672.12-1.256.36-1.752a2.739 2.739 0 011.044-1.164c.448-.28.976-.42 1.584-.42.576 0 1.084.136 1.524.408.44.264.78.648 1.02 1.152.248.504.372 1.112.372 1.824v.324h-4.584c.032.624.196 1.092.492 1.404.304.312.712.468 1.224.468.376 0 .688-.088.936-.264.248-.176.42-.412.516-.708l1.32.084a2.647 2.647 0 01-.996 1.44c-.488.36-1.084.54-1.788.54zm-1.704-3.924h3.24c-.04-.568-.204-.988-.492-1.26-.28-.272-.64-.408-1.08-.408-.456 0-.832.144-1.128.432-.288.28-.468.692-.54 1.236zm5.873 3.78v-6.384h1.164l.036 1.584-.144-.048c.072-.352.196-.652.372-.9a1.93 1.93 0 01.672-.576c.264-.136.552-.204.864-.204.544 0 .988.156 1.332.468.344.304.56.724.648 1.26h-.204c.072-.376.192-.688.36-.936.176-.256.4-.452.672-.588.272-.136.58-.204.924-.204.448 0 .828.096 1.14.288.32.184.56.456.72.816.168.36.252.8.252 1.32V266h-1.272v-3.792c0-.552-.1-.968-.3-1.248-.2-.28-.504-.42-.912-.42-.264 0-.496.068-.696.204-.2.136-.356.332-.468.588a2.453 2.453 0 00-.156.924V266h-1.212v-3.744c0-.544-.092-.964-.276-1.26-.176-.304-.48-.456-.912-.456-.272 0-.508.068-.708.204a1.364 1.364 0 00-.456.6c-.112.256-.168.56-.168.912V266h-1.272zm13.535 1.8v-8.184h1.2l.036 1.368-.144-.072c.16-.472.424-.828.792-1.068a2.222 2.222 0 011.272-.372c.624 0 1.136.156 1.536.468.408.304.708.708.9 1.212.2.504.3 1.056.3 1.656 0 .6-.1 1.152-.3 1.656a2.727 2.727 0 01-.9 1.224c-.4.304-.912.456-1.536.456a2.4 2.4 0 01-.9-.168 2.116 2.116 0 01-.72-.468 1.786 1.786 0 01-.408-.732l.144-.144v3.168h-1.272zm2.928-2.76c.512 0 .912-.196 1.2-.588.296-.392.444-.94.444-1.644s-.148-1.252-.444-1.644c-.288-.392-.688-.588-1.2-.588-.336 0-.628.084-.876.252-.248.16-.44.408-.576.744-.136.336-.204.748-.204 1.236s.064.9.192 1.236c.136.336.328.588.576.756.256.16.552.24.888.24zm4.255.96v-6.384h1.164l.048 1.692-.108-.036c.088-.576.264-.996.528-1.26.272-.264.636-.396 1.092-.396h.612v1.14h-.612c-.32 0-.588.052-.804.156a1.06 1.06 0 00-.492.48c-.104.216-.156.496-.156.84V266h-1.272zm6.87.144c-.608 0-1.14-.136-1.596-.408a2.714 2.714 0 01-1.056-1.164c-.248-.504-.372-1.092-.372-1.764 0-.68.124-1.268.372-1.764s.6-.88 1.056-1.152c.456-.28.988-.42 1.596-.42.608 0 1.14.14 1.596.42.456.272.808.656 1.056 1.152.248.496.372 1.084.372 1.764 0 .672-.124 1.26-.372 1.764s-.6.892-1.056 1.164c-.456.272-.988.408-1.596.408zm0-1.104c.544 0 .964-.196 1.26-.588.296-.4.444-.948.444-1.644s-.148-1.24-.444-1.632c-.296-.4-.716-.6-1.26-.6-.536 0-.956.2-1.26.6-.296.392-.444.936-.444 1.632 0 .696.148 1.244.444 1.644.304.392.724.588 1.26.588zm4.31.96v-6.384h1.164l.036 1.584-.144-.048c.072-.352.196-.652.372-.9a1.93 1.93 0 01.672-.576c.264-.136.552-.204.864-.204.544 0 .988.156 1.332.468.344.304.56.724.648 1.26h-.204c.072-.376.192-.688.36-.936.176-.256.4-.452.672-.588.272-.136.58-.204.924-.204.448 0 .828.096 1.14.288.32.184.56.456.72.816.168.36.252.8.252 1.32V266h-1.272v-3.792c0-.552-.1-.968-.3-1.248-.2-.28-.504-.42-.912-.42-.264 0-.496.068-.696.204-.2.136-.356.332-.468.588a2.453 2.453 0 00-.156.924V266h-1.212v-3.744c0-.544-.092-.964-.276-1.26-.176-.304-.48-.456-.912-.456-.272 0-.508.068-.708.204a1.364 1.364 0 00-.456.6c-.112.256-.168.56-.168.912V266h-1.272zm10.395 1.8v-8.184h1.2l.036 1.368-.144-.072c.16-.472.424-.828.792-1.068a2.222 2.222 0 011.272-.372c.624 0 1.136.156 1.536.468.408.304.708.708.9 1.212.2.504.3 1.056.3 1.656 0 .6-.1 1.152-.3 1.656a2.727 2.727 0 01-.9 1.224c-.4.304-.912.456-1.536.456a2.4 2.4 0 01-.9-.168 2.116 2.116 0 01-.72-.468 1.786 1.786 0 01-.408-.732l.144-.144v3.168h-1.272zm2.928-2.76c.512 0 .912-.196 1.2-.588.296-.392.444-.94.444-1.644s-.148-1.252-.444-1.644c-.288-.392-.688-.588-1.2-.588-.336 0-.628.084-.876.252-.248.16-.44.408-.576.744-.136.336-.204.748-.204 1.236s.064.9.192 1.236c.136.336.328.588.576.756.256.16.552.24.888.24zm6.469.96c-.608 0-1.056-.14-1.344-.42-.288-.28-.432-.716-.432-1.308v-6.156h1.272v6.06c0 .296.064.5.192.612.128.112.324.168.588.168h.912V266h-1.188zm-2.748-5.34v-1.044h3.936v1.044h-3.936zm5.154 5.34v-1.512h1.548V266h-1.548zm2.554 0v-1.512h1.548V266h-1.548zm2.555 0v-1.512h1.548V266h-1.548z"
              fill="#858585"
              fillOpacity={0.85}
            />
          </g>
          <g filter="url(#filter1_dddd_113_57)">
            <rect x={41} y={52} width={278} height={505} rx={12} fill="#131313" />
            <rect
              x={41.5}
              y={52.5}
              width={277}
              height={504}
              rx={11.5}
              stroke="#333"
            />
            <rect x={57} y={68} width={28} height={28} rx={8} fill="#1B1B1B" />
            <g clipPath="url(#clip2_113_57)">
              <path
                d="M72.385 90.591c-.43.542-1.302.245-1.313-.446l-.151-10.118h6.803c1.232 0 1.92 1.423 1.153 2.388l-6.492 8.176z"
                fill="url(#paint0_linear_113_57)"
              />
              <path
                d="M72.385 90.591c-.43.542-1.302.245-1.313-.446l-.151-10.118h6.803c1.232 0 1.92 1.423 1.153 2.388l-6.492 8.176z"
                fill="url(#paint1_linear_113_57)"
                fillOpacity={0.2}
              />
              <path
                d="M69.618 74.311c.43-.541 1.303-.244 1.313.447l.066 10.118H64.28c-1.232 0-1.919-1.423-1.153-2.388l6.492-8.177z"
                fill="#3ECF8E"
              />
            </g>
            <path
              d="M99.568 88.256c-.939 0-1.75-.165-2.432-.496a4.005 4.005 0 01-1.616-1.376c-.384-.597-.608-1.29-.672-2.08l2.112-.128c.064.49.203.907.416 1.248.224.341.517.603.88.784.373.17.821.256 1.344.256.448 0 .827-.053 1.136-.16.32-.117.56-.283.72-.496.171-.224.256-.496.256-.816 0-.288-.069-.544-.208-.768-.139-.235-.405-.443-.8-.624-.395-.192-.981-.379-1.76-.56-.939-.213-1.69-.453-2.256-.72-.565-.277-.976-.619-1.232-1.024-.256-.416-.384-.933-.384-1.552 0-.661.165-1.243.496-1.744.33-.512.8-.907 1.408-1.184.608-.288 1.339-.432 2.192-.432.907 0 1.675.165 2.304.496.629.32 1.125.763 1.488 1.328.363.565.587 1.216.672 1.952l-2.096.096a2.538 2.538 0 00-.384-1.088 1.943 1.943 0 00-.8-.72c-.331-.181-.736-.272-1.216-.272-.597 0-1.072.139-1.424.416-.341.267-.512.624-.512 1.072 0 .31.07.565.208.768.15.203.41.379.784.528.373.139.896.288 1.568.448 1.013.213 1.819.485 2.416.816.597.33 1.024.715 1.28 1.152.256.437.384.939.384 1.504 0 .693-.176 1.296-.528 1.808-.352.501-.848.89-1.488 1.168-.64.267-1.392.4-2.256.4zm9.056-.064c-.864 0-1.552-.283-2.064-.848-.502-.576-.752-1.37-.752-2.384v-5.504h2.048v4.992c0 .715.117 1.243.352 1.584.245.33.613.496 1.104.496.554 0 .981-.181 1.28-.544.309-.373.464-.912.464-1.616v-4.912h2.048V88h-1.872l-.048-2.352.256.08c-.128.81-.432 1.424-.912 1.84-.48.416-1.115.624-1.904.624zm6.73 2.208V79.456h1.968l.048 1.824-.208-.096c.214-.63.56-1.104 1.04-1.424.491-.33 1.062-.496 1.712-.496.811 0 1.483.203 2.016.608.544.405.95.944 1.216 1.616.267.672.4 1.419.4 2.24 0 .821-.138 1.568-.416 2.24a3.635 3.635 0 01-1.216 1.616c-.533.405-1.205.608-2.016.608-.426 0-.826-.075-1.2-.224a2.752 2.752 0 01-.944-.64 2.386 2.386 0 01-.544-.976l.192-.16V90.4h-2.048zm4.064-3.872c.619 0 1.104-.245 1.456-.736.363-.501.544-1.19.544-2.064 0-.875-.181-1.557-.544-2.048-.352-.501-.837-.752-1.456-.752-.416 0-.773.107-1.072.32-.298.203-.533.512-.704.928-.16.416-.24.933-.24 1.552s.08 1.136.24 1.552c.16.416.39.73.688.944.31.203.672.304 1.088.304zm8.323 1.664c-.896 0-1.616-.203-2.16-.608-.544-.416-.816-.992-.816-1.728s.229-1.312.688-1.728c.458-.416 1.157-.715 2.096-.896l2.832-.56c0-.608-.139-1.061-.416-1.36-.278-.31-.688-.464-1.232-.464-.491 0-.88.117-1.168.352-.278.224-.47.55-.576.976l-2.08-.096c.17-.907.586-1.6 1.248-2.08.661-.49 1.52-.736 2.576-.736 1.216 0 2.133.31 2.752.928.629.608.944 1.483.944 2.624v3.104c0 .224.037.379.112.464.085.085.208.128.368.128h.272V88a1.46 1.46 0 01-.32.048c-.139.01-.283.016-.432.016-.352 0-.667-.053-.944-.16a1.274 1.274 0 01-.64-.592c-.15-.288-.224-.677-.224-1.168l.176.128c-.086.373-.272.71-.56 1.008-.278.288-.63.512-1.056.672a4.08 4.08 0 01-1.44.24zm.416-1.488c.458 0 .853-.09 1.184-.272.33-.181.586-.432.768-.752.181-.32.272-.699.272-1.136v-.48l-2.208.448c-.459.096-.79.24-.992.432-.192.181-.288.421-.288.72 0 .33.106.587.32.768.224.181.538.272.944.272zm10.852 1.488c-.597 0-1.12-.128-1.568-.384a2.68 2.68 0 01-1.024-1.072L136.369 88h-1.952V76.64h2.048v4.032a2.904 2.904 0 011.008-.992c.437-.277.949-.416 1.536-.416.736 0 1.371.187 1.904.56.544.363.96.88 1.248 1.552.299.661.448 1.445.448 2.352 0 .907-.149 1.696-.448 2.368-.288.661-.704 1.179-1.248 1.552-.533.363-1.168.544-1.904.544zm-.464-1.664c.587 0 1.056-.245 1.408-.736.352-.501.528-1.19.528-2.064 0-.885-.176-1.573-.528-2.064-.341-.49-.805-.736-1.392-.736-.437 0-.816.112-1.136.336-.309.213-.549.528-.72.944-.16.416-.24.923-.24 1.52 0 .576.08 1.077.24 1.504.171.416.411.736.72.96.309.224.683.336 1.12.336zm8.258 1.664c-.896 0-1.616-.203-2.16-.608-.544-.416-.816-.992-.816-1.728s.229-1.312.688-1.728c.459-.416 1.157-.715 2.096-.896l2.832-.56c0-.608-.139-1.061-.416-1.36-.277-.31-.688-.464-1.232-.464-.491 0-.88.117-1.168.352-.277.224-.469.55-.576.976l-2.08-.096c.171-.907.587-1.6 1.248-2.08.661-.49 1.52-.736 2.576-.736 1.216 0 2.133.31 2.752.928.629.608.944 1.483.944 2.624v3.104c0 .224.037.379.112.464.085.085.208.128.368.128h.272V88a1.46 1.46 0 01-.32.048c-.139.01-.283.016-.432.016-.352 0-.667-.053-.944-.16a1.278 1.278 0 01-.64-.592c-.149-.288-.224-.677-.224-1.168l.176.128c-.085.373-.272.71-.56 1.008a2.802 2.802 0 01-1.056.672 4.08 4.08 0 01-1.44.24zm.416-1.488c.459 0 .853-.09 1.184-.272.331-.181.587-.432.768-.752.181-.32.272-.699.272-1.136v-.48l-2.208.448c-.459.096-.789.24-.992.432-.192.181-.288.421-.288.72 0 .33.107.587.32.768.224.181.539.272.944.272zm9.732 1.488c-.842 0-1.552-.123-2.128-.368-.565-.245-1.002-.587-1.312-1.024a2.92 2.92 0 01-.528-1.488l2.096-.096c.075.448.262.795.56 1.04.299.245.742.368 1.328.368.48 0 .854-.075 1.12-.224.278-.16.416-.405.416-.736a.778.778 0 00-.144-.48c-.096-.128-.277-.24-.544-.336-.266-.096-.661-.192-1.184-.288-.874-.15-1.562-.33-2.064-.544-.501-.224-.858-.501-1.072-.832-.202-.33-.304-.741-.304-1.232 0-.8.304-1.445.912-1.936.619-.501 1.52-.752 2.704-.752.768 0 1.414.128 1.936.384.523.245.928.587 1.216 1.024.299.427.486.917.56 1.472l-2.064.096a2.037 2.037 0 00-.288-.752 1.286 1.286 0 00-.56-.48 1.838 1.838 0 00-.832-.176c-.48 0-.842.096-1.088.288a.927.927 0 00-.368.768c0 .224.054.41.16.56.118.15.304.272.56.368.256.085.598.165 1.024.24.896.139 1.6.32 2.112.544.523.213.891.49 1.104.832.224.33.336.73.336 1.2 0 .544-.154 1.008-.464 1.392-.298.384-.725.677-1.28.88-.544.192-1.184.288-1.92.288zm8.959 0c-.854 0-1.595-.181-2.224-.544a3.755 3.755 0 01-1.456-1.568c-.342-.672-.512-1.456-.512-2.352 0-.896.17-1.675.512-2.336a3.79 3.79 0 011.44-1.568c.629-.373 1.36-.56 2.192-.56.81 0 1.52.181 2.128.544a3.577 3.577 0 011.424 1.568c.33.683.496 1.504.496 2.464v.464h-6.064c.042.747.245 1.312.608 1.696.373.373.864.56 1.472.56.458 0 .837-.101 1.136-.304.309-.213.522-.507.64-.88l2.096.128a3.464 3.464 0 01-1.392 1.968c-.683.48-1.515.72-2.496.72zm-2.064-5.264h3.952c-.043-.693-.24-1.205-.592-1.536-.352-.341-.8-.512-1.344-.512s-.998.176-1.36.528c-.352.352-.571.859-.656 1.52z"
              fill="#fff"
              fillOpacity={0.62}
            />
            <path fill="#262626" d="M41 108H319V110H41z" />
            <path
              d="M63 140.256c-1.099 0-2.043-.235-2.832-.704-.79-.48-1.397-1.163-1.824-2.048-.427-.885-.64-1.941-.64-3.168s.213-2.283.64-3.168c.427-.896 1.035-1.584 1.824-2.064.79-.48 1.733-.72 2.832-.72 1.11 0 2.059.24 2.848.72.8.48 1.408 1.168 1.824 2.064.427.885.64 1.941.64 3.168s-.213 2.283-.64 3.168c-.416.885-1.024 1.568-1.824 2.048-.79.469-1.739.704-2.848.704zm0-1.584c.736 0 1.365-.171 1.888-.512.533-.341.939-.832 1.216-1.472.277-.651.416-1.435.416-2.352 0-.917-.139-1.701-.416-2.352-.277-.651-.683-1.147-1.216-1.488-.523-.352-1.152-.528-1.888-.528-.725 0-1.35.176-1.872.528-.523.341-.928.837-1.216 1.488-.277.651-.416 1.435-.416 2.352 0 .917.139 1.701.416 2.352.288.64.693 1.131 1.216 1.472.523.341 1.147.512 1.872.512zm7.216 3.728v-10.912h1.6l.048 1.824-.192-.096c.213-.629.565-1.104 1.056-1.424.49-.331 1.056-.496 1.696-.496.832 0 1.514.208 2.048.624.544.405.944.944 1.2 1.616.266.672.4 1.408.4 2.208 0 .8-.134 1.536-.4 2.208a3.636 3.636 0 01-1.2 1.632c-.534.405-1.216.608-2.048.608-.427 0-.827-.075-1.2-.224a2.812 2.812 0 01-.96-.624 2.382 2.382 0 01-.544-.976l.192-.192v4.224h-1.696zm3.904-3.68c.682 0 1.216-.261 1.6-.784.394-.523.592-1.253.592-2.192 0-.939-.198-1.669-.592-2.192-.384-.523-.918-.784-1.6-.784-.448 0-.838.112-1.168.336-.331.213-.587.544-.768.992-.182.448-.272.997-.272 1.648 0 .651.085 1.2.256 1.648.181.448.437.784.768 1.008.341.213.736.32 1.184.32zm9.178 1.472c-.832 0-1.552-.181-2.16-.544-.598-.363-1.062-.88-1.392-1.552-.32-.672-.48-1.456-.48-2.352 0-.896.16-1.675.48-2.336.33-.672.794-1.189 1.392-1.552.597-.373 1.301-.56 2.112-.56.768 0 1.445.181 2.032.544.586.352 1.04.864 1.36 1.536.33.672.496 1.483.496 2.432v.432h-6.112c.042.832.261 1.456.656 1.872.405.416.95.624 1.632.624.501 0 .917-.117 1.248-.352.33-.235.56-.549.688-.944l1.76.112a3.532 3.532 0 01-1.328 1.92c-.65.48-1.446.72-2.384.72zm-2.272-5.232h4.32c-.054-.757-.272-1.317-.656-1.68-.374-.363-.854-.544-1.44-.544-.608 0-1.11.192-1.504.576-.384.373-.624.923-.72 1.648zm7.83 5.04v-8.512h1.552l.064 2.256-.144-.048c.118-.768.352-1.328.704-1.68.363-.352.848-.528 1.456-.528h.816v1.52h-.816c-.426 0-.784.069-1.072.208a1.414 1.414 0 00-.656.64c-.138.288-.208.661-.208 1.12V140h-1.696zm8.072.192c-.886 0-1.595-.203-2.128-.608-.523-.405-.784-.976-.784-1.712s.218-1.307.656-1.712c.448-.416 1.136-.715 2.064-.896l2.928-.56c0-.661-.155-1.152-.464-1.472-.31-.331-.768-.496-1.376-.496-.544 0-.97.123-1.28.368-.31.235-.523.587-.64 1.056l-1.744-.112c.16-.853.554-1.525 1.184-2.016.64-.491 1.466-.736 2.48-.736 1.152 0 2.026.309 2.624.928.608.608.912 1.467.912 2.576v3.312c0 .203.032.347.096.432.074.075.192.112.352.112h.304V140a3.96 3.96 0 01-.624.048c-.363 0-.678-.059-.944-.176a1.163 1.163 0 01-.576-.576c-.128-.277-.192-.645-.192-1.104l.176.08a2.023 2.023 0 01-.56.992 2.956 2.956 0 01-1.072.688c-.427.16-.89.24-1.392.24zm.272-1.344c.512 0 .95-.096 1.312-.288.362-.203.645-.48.848-.832.202-.352.304-.752.304-1.2v-.544l-2.496.48c-.512.096-.875.251-1.088.464-.203.203-.304.464-.304.784 0 .363.122.645.368.848.256.192.608.288 1.056.288zm9.17 1.152c-.81 0-1.408-.187-1.792-.56-.384-.373-.576-.955-.576-1.744v-8.208h1.696v8.08c0 .395.086.667.256.816.171.149.432.224.784.224h1.216V140h-1.584zm-3.664-7.12v-1.392h5.248v1.392h-5.248zm6.869 7.12v-8.512h1.696V140h-1.696zm-.032-9.744v-1.696h1.76v1.696h-1.76zm7.473 9.936c-.81 0-1.519-.181-2.127-.544a3.616 3.616 0 01-1.408-1.552c-.331-.672-.496-1.456-.496-2.352 0-.907.165-1.691.496-2.352.33-.661.8-1.173 1.408-1.536.608-.373 1.317-.56 2.127-.56.811 0 1.521.187 2.129.56a3.644 3.644 0 011.408 1.536c.33.661.496 1.445.496 2.352 0 .896-.166 1.68-.496 2.352a3.623 3.623 0 01-1.408 1.552c-.608.363-1.318.544-2.129.544zm0-1.472c.726 0 1.286-.261 1.681-.784.394-.533.592-1.264.592-2.192 0-.928-.198-1.653-.592-2.176-.395-.533-.955-.8-1.681-.8-.714 0-1.274.267-1.679.8-.395.523-.592 1.248-.592 2.176 0 .928.197 1.659.592 2.192.405.523.965.784 1.679.784zm5.747 1.28v-8.512h1.552l.064 2.272-.208-.112c.096-.555.277-1.003.544-1.344a2.39 2.39 0 01.976-.752c.384-.171.8-.256 1.248-.256.64 0 1.168.144 1.584.432.426.277.746.661.96 1.152.224.48.336 1.029.336 1.648V140h-1.696v-4.96c0-.501-.054-.923-.16-1.264-.107-.341-.283-.603-.528-.784-.246-.181-.566-.272-.96-.272-.598 0-1.083.197-1.456.592-.374.395-.56.971-.56 1.728V140h-1.696zM58.376 226v-11.36h4.24c1.301 0 2.315.315 3.04.944.725.619 1.088 1.483 1.088 2.592 0 .736-.165 1.376-.496 1.92-.33.533-.805.944-1.424 1.232-.608.277-1.344.416-2.208.416h-2.512V226h-1.728zm1.728-5.824h2.464c.779 0 1.37-.165 1.776-.496.405-.341.608-.843.608-1.504 0-.651-.203-1.136-.608-1.456-.405-.331-.997-.496-1.776-.496h-2.464v3.952zM68.575 226v-8.512h1.552l.064 2.256-.144-.048c.117-.768.352-1.328.704-1.68.363-.352.848-.528 1.456-.528h.816v1.52h-.816c-.427 0-.784.069-1.072.208a1.414 1.414 0 00-.656.64c-.139.288-.208.661-.208 1.12V226h-1.696zm9.16.192c-.81 0-1.52-.181-2.128-.544a3.62 3.62 0 01-1.408-1.552c-.33-.672-.496-1.456-.496-2.352 0-.907.166-1.691.496-2.352.33-.661.8-1.173 1.408-1.536.608-.373 1.318-.56 2.128-.56s1.52.187 2.128.56a3.642 3.642 0 011.408 1.536c.33.661.496 1.445.496 2.352 0 .896-.165 1.68-.496 2.352a3.62 3.62 0 01-1.408 1.552c-.608.363-1.317.544-2.128.544zm0-1.472c.726 0 1.286-.261 1.68-.784.395-.533.592-1.264.592-2.192 0-.928-.197-1.653-.592-2.176-.394-.533-.954-.8-1.68-.8-.714 0-1.274.267-1.68.8-.394.523-.592 1.248-.592 2.176 0 .928.198 1.659.592 2.192.406.523.966.784 1.68.784zm4.357 3.68v-1.392h.768c.288 0 .512-.064.672-.192.17-.128.256-.373.256-.736v-8.592H85.5v8.656c0 .811-.186 1.387-.56 1.728-.362.352-.97.528-1.824.528h-1.024zm1.68-12.144v-1.696h1.76v1.696h-1.76zm7.479 9.936c-.832 0-1.552-.181-2.16-.544-.597-.363-1.061-.88-1.392-1.552-.32-.672-.48-1.456-.48-2.352 0-.896.16-1.675.48-2.336.33-.672.794-1.189 1.392-1.552.597-.373 1.301-.56 2.112-.56.768 0 1.445.181 2.032.544.587.352 1.04.864 1.36 1.536.33.672.496 1.483.496 2.432v.432h-6.112c.043.832.261 1.456.656 1.872.405.416.95.624 1.632.624.501 0 .917-.117 1.248-.352.33-.235.56-.549.688-.944l1.76.112a3.532 3.532 0 01-1.328 1.92c-.65.48-1.446.72-2.384.72zm-2.272-5.232h4.32c-.053-.757-.272-1.317-.656-1.68-.374-.363-.853-.544-1.44-.544-.608 0-1.11.192-1.504.576-.384.373-.624.923-.72 1.648zm11.334 5.232c-.81 0-1.52-.181-2.128-.544a3.62 3.62 0 01-1.408-1.552c-.33-.672-.496-1.456-.496-2.352 0-.896.166-1.675.496-2.336a3.62 3.62 0 011.408-1.552c.608-.373 1.318-.56 2.128-.56.694 0 1.307.123 1.84.368.544.235.982.581 1.312 1.04.342.459.56 1.019.656 1.68l-1.776.096c-.085-.555-.309-.976-.672-1.264-.362-.299-.816-.448-1.36-.448-.714 0-1.274.267-1.68.8-.394.523-.592 1.248-.592 2.176 0 .928.198 1.659.592 2.192.406.523.966.784 1.68.784.544 0 .998-.149 1.36-.448.363-.309.587-.773.672-1.392l1.776.096c-.096.651-.314 1.216-.656 1.696-.33.48-.768.853-1.312 1.12-.533.267-1.146.4-1.84.4zm8.307-.192c-.81 0-1.408-.187-1.792-.56-.384-.373-.576-.955-.576-1.744v-8.208h1.696v8.08c0 .395.086.667.256.816.171.149.432.224.784.224h1.216V226h-1.584zm-3.664-7.12v-1.392h5.248v1.392h-5.248zm11.029 7.12v-11.36h1.728V226h-1.728zm4.204 0v-11.36h3.648c1.781 0 3.152.496 4.112 1.488.96.981 1.44 2.384 1.44 4.208 0 1.813-.475 3.211-1.424 4.192-.939.981-2.283 1.472-4.032 1.472h-3.744zm1.728-1.584h1.92c1.258 0 2.197-.336 2.816-1.008.629-.683.944-1.707.944-3.072 0-1.387-.315-2.416-.944-3.088-.619-.683-1.558-1.024-2.816-1.024h-1.92v8.192zM60.68 312v-9.776h-3.488v-1.584h8.704v1.584h-3.488V312H60.68zm7.873.192c-.886 0-1.595-.203-2.128-.608-.523-.405-.784-.976-.784-1.712s.218-1.307.656-1.712c.448-.416 1.136-.715 2.064-.896l2.928-.56c0-.661-.155-1.152-.464-1.472-.31-.331-.768-.496-1.376-.496-.544 0-.97.123-1.28.368-.31.235-.523.587-.64 1.056l-1.744-.112c.16-.853.554-1.525 1.184-2.016.64-.491 1.466-.736 2.48-.736 1.152 0 2.026.309 2.624.928.608.608.912 1.467.912 2.576v3.312c0 .203.032.347.096.432.074.075.192.112.352.112h.304V312a3.95 3.95 0 01-.624.048c-.363 0-.678-.059-.944-.176a1.162 1.162 0 01-.576-.576c-.128-.277-.192-.645-.192-1.104l.176.08a2.023 2.023 0 01-.56.992 2.956 2.956 0 01-1.072.688c-.427.16-.89.24-1.392.24zm.272-1.344c.512 0 .95-.096 1.312-.288.362-.203.645-.48.848-.832.202-.352.304-.752.304-1.2v-.544l-2.496.48c-.512.096-.875.251-1.088.464-.203.203-.304.464-.304.784 0 .363.122.645.368.848.256.192.608.288 1.056.288zm10.506 1.344c-.587 0-1.11-.128-1.568-.384a2.758 2.758 0 01-1.04-1.088l-.048 1.28H75.09v-11.36h1.696v4.048c.224-.373.554-.699.992-.976.448-.277.965-.416 1.552-.416.736 0 1.376.181 1.92.544.544.363.96.88 1.248 1.552.298.661.448 1.445.448 2.352 0 .907-.15 1.696-.448 2.368-.288.661-.704 1.173-1.248 1.536s-1.184.544-1.92.544zm-.272-1.472c.65 0 1.168-.261 1.552-.784.384-.533.576-1.264.576-2.192 0-.928-.192-1.653-.576-2.176-.384-.533-.896-.8-1.536-.8-.48 0-.891.117-1.232.352-.342.235-.603.576-.784 1.024-.182.437-.272.971-.272 1.6 0 .608.09 1.136.272 1.584.181.448.442.795.784 1.04.341.235.746.352 1.216.352zm7.544 1.28c-.555 0-1.003-.144-1.344-.432-.341-.288-.512-.747-.512-1.376v-9.552h1.696v9.392c0 .192.048.336.144.432.106.096.256.144.448.144h.672V312h-1.104zm6.054.192c-.832 0-1.552-.181-2.16-.544-.597-.363-1.061-.88-1.392-1.552-.32-.672-.48-1.456-.48-2.352 0-.896.16-1.675.48-2.336.33-.672.795-1.189 1.392-1.552.597-.373 1.302-.56 2.112-.56.768 0 1.446.181 2.032.544.587.352 1.04.864 1.36 1.536.33.672.496 1.483.496 2.432v.432h-6.112c.043.832.261 1.456.656 1.872.406.416.95.624 1.632.624.501 0 .918-.117 1.248-.352.33-.235.56-.549.688-.944l1.76.112a3.532 3.532 0 01-1.328 1.92c-.65.48-1.445.72-2.384.72zm-2.272-5.232h4.32c-.053-.757-.272-1.317-.656-1.68-.373-.363-.853-.544-1.44-.544-.608 0-1.11.192-1.504.576-.384.373-.624.923-.72 1.648z"
              fill="#7D7D7D"
            />
            <path
              d="M319 255h3a8 8 0 018 8v19a8 8 0 01-8 8h-3v-35z"
              fill="#262626"
            />
            <rect
              x={57.5}
              y={154.5}
              width={245}
              height={37}
              rx={11.5}
              fill="#212121"
            />
            <rect
              x={57.5}
              y={154.5}
              width={245}
              height={37}
              rx={11.5}
              stroke="#282828"
            />
            <path
              d="M70.032 177v-8.52h3.396c.608 0 1.132.104 1.572.312.44.208.78.504 1.02.888s.36.84.36 1.368c0 .384-.088.728-.264 1.032a2.004 2.004 0 01-.684.732c-.28.176-.58.276-.9.3l-.06-.108c.536 0 .952.124 1.248.372.296.24.468.62.516 1.14l.228 2.484h-1.308l-.204-2.316c-.024-.344-.14-.596-.348-.756-.208-.168-.548-.252-1.02-.252h-2.256V177h-1.296zm1.296-4.512h2.124c.488 0 .872-.12 1.152-.36.288-.248.432-.596.432-1.044 0-.456-.144-.804-.432-1.044-.288-.248-.708-.372-1.26-.372h-2.016v2.82zm9.192 4.656c-.624 0-1.164-.136-1.62-.408a2.739 2.739 0 01-1.044-1.164c-.24-.504-.36-1.092-.36-1.764 0-.672.12-1.256.36-1.752a2.739 2.739 0 011.044-1.164c.448-.28.976-.42 1.584-.42.576 0 1.084.136 1.524.408.44.264.78.648 1.02 1.152.248.504.372 1.112.372 1.824v.324h-4.584c.032.624.196 1.092.492 1.404.304.312.712.468 1.224.468.376 0 .688-.088.936-.264.248-.176.42-.412.516-.708l1.32.084a2.647 2.647 0 01-.996 1.44c-.488.36-1.084.54-1.788.54zm-1.704-3.924h3.24c-.04-.568-.204-.988-.492-1.26-.28-.272-.64-.408-1.08-.408-.456 0-.832.144-1.128.432-.288.28-.468.692-.54 1.236zm7.79 3.924c-.664 0-1.196-.152-1.596-.456-.392-.304-.588-.732-.588-1.284s.164-.98.492-1.284c.336-.312.852-.536 1.548-.672l2.196-.42c0-.496-.116-.864-.348-1.104-.232-.248-.576-.372-1.032-.372-.408 0-.728.092-.96.276-.232.176-.392.44-.48.792l-1.308-.084c.12-.64.416-1.144.888-1.512.48-.368 1.1-.552 1.86-.552.864 0 1.52.232 1.968.696.456.456.684 1.1.684 1.932v2.484c0 .152.024.26.072.324.056.056.144.084.264.084h.228V177a3.05 3.05 0 01-.468.036c-.272 0-.508-.044-.708-.132a.873.873 0 01-.432-.432c-.096-.208-.144-.484-.144-.828l.132.06c-.064.28-.204.528-.42.744a2.213 2.213 0 01-.804.516c-.32.12-.668.18-1.044.18zm.204-1.008c.384 0 .712-.072.984-.216.272-.152.484-.36.636-.624a1.77 1.77 0 00.228-.9v-.408l-1.872.36c-.384.072-.656.188-.816.348a.796.796 0 00-.228.588c0 .272.092.484.276.636.192.144.456.216.792.216zm6.98 1.008c-.545 0-1.02-.136-1.429-.408-.4-.272-.708-.656-.924-1.152-.208-.504-.312-1.096-.312-1.776 0-.68.108-1.268.324-1.764.216-.504.524-.892.924-1.164.4-.272.872-.408 1.416-.408.44 0 .832.092 1.176.276.344.184.604.44.78.768v-3.036h1.272V177H95.83l-.036-.96a1.927 1.927 0 01-.804.816 2.465 2.465 0 01-1.2.288zm.335-1.104c.344 0 .636-.088.876-.264.24-.176.424-.432.552-.768.128-.336.192-.736.192-1.2 0-.48-.064-.884-.192-1.212-.128-.336-.312-.588-.552-.756-.24-.176-.532-.264-.876-.264-.512 0-.92.2-1.224.6-.304.392-.456.936-.456 1.632 0 .688.152 1.232.456 1.632.304.4.712.6 1.224.6zm6.955.96l3.072-8.52h1.644l3.072 8.52h-1.38l-.78-2.22h-3.48l-.768 2.22h-1.38zm2.556-3.396h2.676l-1.344-3.888-1.332 3.888zm7.511 3.396c-.416 0-.752-.108-1.008-.324-.256-.216-.384-.56-.384-1.032v-7.164h1.272v7.044c0 .144.036.252.108.324.08.072.192.108.336.108h.504V177h-.828zm3.27 0c-.416 0-.752-.108-1.008-.324-.256-.216-.384-.56-.384-1.032v-7.164h1.272v7.044c0 .144.036.252.108.324.08.072.192.108.336.108h.504V177h-.828zm5.045 0v-8.52h3.396c.608 0 1.132.104 1.572.312.44.208.78.504 1.02.888s.36.84.36 1.368c0 .384-.088.728-.264 1.032a2.004 2.004 0 01-.684.732c-.28.176-.58.276-.9.3l-.06-.108c.536 0 .952.124 1.248.372.296.24.468.62.516 1.14l.228 2.484h-1.308l-.204-2.316c-.024-.344-.14-.596-.348-.756-.208-.168-.548-.252-1.02-.252h-2.256V177h-1.296zm1.296-4.512h2.124c.488 0 .872-.12 1.152-.36.288-.248.432-.596.432-1.044 0-.456-.144-.804-.432-1.044-.288-.248-.708-.372-1.26-.372h-2.016v2.82zm9.192 4.656c-.608 0-1.14-.136-1.596-.408a2.714 2.714 0 01-1.056-1.164c-.248-.504-.372-1.092-.372-1.764 0-.68.124-1.268.372-1.764s.6-.88 1.056-1.152c.456-.28.988-.42 1.596-.42.608 0 1.14.14 1.596.42.456.272.808.656 1.056 1.152.248.496.372 1.084.372 1.764 0 .672-.124 1.26-.372 1.764s-.6.892-1.056 1.164c-.456.272-.988.408-1.596.408zm0-1.104c.544 0 .964-.196 1.26-.588.296-.4.444-.948.444-1.644s-.148-1.24-.444-1.632c-.296-.4-.716-.6-1.26-.6-.536 0-.956.2-1.26.6-.296.392-.444.936-.444 1.632 0 .696.148 1.244.444 1.644.304.392.724.588 1.26.588zm5.418.96l-1.944-6.384h1.332l1.368 4.992 1.404-4.992h1.2l1.404 4.992 1.38-4.992h1.332L140.9 177h-1.428l-1.344-4.56-1.344 4.56h-1.416zm10.773.144c-.6 0-1.108-.092-1.524-.276-.408-.184-.724-.436-.948-.756a2.264 2.264 0 01-.384-1.128l1.308-.06c.064.352.216.632.456.84.24.208.604.312 1.092.312.4 0 .716-.064.948-.192.232-.128.348-.332.348-.612 0-.152-.04-.28-.12-.384-.072-.112-.216-.204-.432-.276-.216-.08-.536-.156-.96-.228-.632-.12-1.128-.26-1.488-.42-.36-.16-.616-.364-.768-.612-.152-.248-.228-.548-.228-.9 0-.584.216-1.06.648-1.428.44-.368 1.072-.552 1.896-.552.552 0 1.016.096 1.392.288.376.184.668.436.876.756.216.312.352.664.408 1.056l-1.308.072a1.335 1.335 0 00-.24-.576 1.072 1.072 0 00-.456-.384 1.513 1.513 0 00-.684-.144c-.408 0-.712.08-.912.24-.2.16-.3.368-.3.624 0 .192.044.348.132.468.096.12.248.22.456.3.208.072.484.136.828.192.664.112 1.184.252 1.56.42.376.16.64.36.792.6.152.24.228.532.228.876 0 .4-.112.74-.336 1.02-.224.28-.532.496-.924.648a3.921 3.921 0 01-1.356.216z"
              fill="#ADADAD"
            />
            <path
              d="M279.5 171.5l3.5 3.5 3.5-3.5"
              stroke="#858585"
              strokeLinecap="round"
              strokeLinejoin="round"
            />
            <rect
              x={57.5}
              y={240.5}
              width={245}
              height={37}
              rx={11.5}
              fill="#212121"
            />
            <rect
              x={57.5}
              y={240.5}
              width={245}
              height={37}
              rx={11.5}
              stroke="#282828"
            />
            <path
              d="M71.916 263v-3.42l-2.988-5.1h1.488l2.148 3.804 2.16-3.804h1.488l-3 5.1V263h-1.296zm6.893.144c-.608 0-1.14-.136-1.596-.408a2.714 2.714 0 01-1.056-1.164c-.248-.504-.372-1.092-.372-1.764 0-.68.124-1.268.372-1.764s.6-.88 1.056-1.152c.456-.28.988-.42 1.596-.42.608 0 1.14.14 1.596.42.456.272.808.656 1.056 1.152.248.496.372 1.084.372 1.764 0 .672-.124 1.26-.372 1.764s-.6.892-1.056 1.164c-.456.272-.988.408-1.596.408zm0-1.104c.544 0 .964-.196 1.26-.588.296-.4.444-.948.444-1.644s-.148-1.24-.444-1.632c-.296-.4-.716-.6-1.26-.6-.536 0-.956.2-1.26.6-.296.392-.444.936-.444 1.632 0 .696.148 1.244.444 1.644.304.392.724.588 1.26.588zm6.41 1.104c-.64 0-1.152-.212-1.536-.636-.376-.432-.564-1.028-.564-1.788v-4.104h1.272v3.78c0 .576.1 1 .3 1.272.2.272.504.408.912.408.464 0 .824-.148 1.08-.444.264-.304.396-.728.396-1.272v-3.744h1.272V263h-1.188l-.024-1.668.18.072c-.112.56-.348.992-.708 1.296-.36.296-.824.444-1.392.444zM90.15 263v-6.384h1.164l.048 1.692-.108-.036c.088-.576.264-.996.528-1.26.272-.264.636-.396 1.092-.396h.612v1.14h-.612c-.32 0-.588.052-.804.156a1.06 1.06 0 00-.492.48c-.104.216-.156.496-.156.84V263H90.15zm10.845.192c-.68 0-1.272-.124-1.776-.372a2.95 2.95 0 01-1.176-1.032 3.24 3.24 0 01-.504-1.536l1.332-.084c.056.4.172.74.348 1.02.176.272.412.48.708.624.304.136.668.204 1.092.204a2.9 2.9 0 00.936-.132c.264-.096.464-.236.6-.42a1.1 1.1 0 00.204-.672c0-.24-.06-.452-.18-.636-.112-.192-.332-.364-.66-.516-.32-.16-.792-.316-1.416-.468-.68-.168-1.224-.352-1.632-.552-.408-.2-.704-.448-.888-.744-.176-.304-.264-.676-.264-1.116 0-.488.116-.916.348-1.284.24-.376.58-.668 1.02-.876.44-.208.968-.312 1.584-.312.648 0 1.2.12 1.656.36.464.24.828.568 1.092.984.272.416.44.892.504 1.428l-1.332.072a2.022 2.022 0 00-.3-.864 1.586 1.586 0 00-.648-.588c-.272-.144-.604-.216-.996-.216-.496 0-.888.116-1.176.348-.28.224-.42.524-.42.9 0 .24.056.444.168.612.12.16.328.3.624.42.304.12.732.248 1.284.384.736.168 1.32.376 1.752.624.44.24.752.524.936.852.184.328.276.7.276 1.116 0 .504-.132.944-.396 1.32-.256.368-.616.652-1.08.852-.464.2-1.004.3-1.62.3zm6.747-.048c-.64 0-1.152-.212-1.536-.636-.376-.432-.564-1.028-.564-1.788v-4.104h1.272v3.78c0 .576.1 1 .3 1.272.2.272.504.408.912.408.464 0 .824-.148 1.08-.444.264-.304.396-.728.396-1.272v-3.744h1.272V263h-1.188l-.024-1.668.18.072c-.112.56-.348.992-.708 1.296-.36.296-.824.444-1.392.444zm4.931 1.656v-8.184h1.2l.036 1.368-.144-.072c.16-.472.424-.828.792-1.068a2.222 2.222 0 011.272-.372c.624 0 1.136.156 1.536.468.408.304.708.708.9 1.212.2.504.3 1.056.3 1.656 0 .6-.1 1.152-.3 1.656a2.727 2.727 0 01-.9 1.224c-.4.304-.912.456-1.536.456a2.4 2.4 0 01-.9-.168 2.116 2.116 0 01-.72-.468 1.786 1.786 0 01-.408-.732l.144-.144v3.168h-1.272zm2.928-2.76c.512 0 .912-.196 1.2-.588.296-.392.444-.94.444-1.644s-.148-1.252-.444-1.644c-.288-.392-.688-.588-1.2-.588-.336 0-.628.084-.876.252-.248.16-.44.408-.576.744-.136.336-.204.748-.204 1.236s.064.9.192 1.236c.136.336.328.588.576.756.256.16.552.24.888.24zm6.173 1.104c-.664 0-1.196-.152-1.596-.456-.392-.304-.588-.732-.588-1.284s.164-.98.492-1.284c.336-.312.852-.536 1.548-.672l2.196-.42c0-.496-.116-.864-.348-1.104-.232-.248-.576-.372-1.032-.372-.408 0-.728.092-.96.276-.232.176-.392.44-.48.792l-1.308-.084c.12-.64.416-1.144.888-1.512.48-.368 1.1-.552 1.86-.552.864 0 1.52.232 1.968.696.456.456.684 1.1.684 1.932v2.484c0 .152.024.26.072.324.056.056.144.084.264.084h.228V263a3.05 3.05 0 01-.468.036c-.272 0-.508-.044-.708-.132a.873.873 0 01-.432-.432c-.096-.208-.144-.484-.144-.828l.132.06c-.064.28-.204.528-.42.744a2.213 2.213 0 01-.804.516c-.32.12-.668.18-1.044.18zm.204-1.008c.384 0 .712-.072.984-.216.272-.152.484-.36.636-.624a1.77 1.77 0 00.228-.9v-.408l-1.872.36c-.384.072-.656.188-.816.348a.796.796 0 00-.228.588c0 .272.092.484.276.636.192.144.456.216.792.216zm7.879 1.008c-.44 0-.832-.096-1.176-.288a2.068 2.068 0 01-.78-.816l-.036.96h-1.188v-8.52h1.272v3.036c.168-.28.416-.524.744-.732a2.166 2.166 0 011.164-.312c.552 0 1.032.136 1.44.408.408.272.72.66.936 1.164.224.496.336 1.084.336 1.764 0 .68-.112 1.272-.336 1.776-.216.496-.528.88-.936 1.152-.408.272-.888.408-1.44.408zm-.204-1.104a1.37 1.37 0 001.164-.588c.288-.4.432-.948.432-1.644s-.144-1.24-.432-1.632c-.288-.4-.672-.6-1.152-.6-.36 0-.668.088-.924.264-.256.176-.452.432-.588.768-.136.328-.204.728-.204 1.2 0 .456.068.852.204 1.188.136.336.332.596.588.78.256.176.56.264.912.264zm6.125 1.104c-.664 0-1.196-.152-1.596-.456-.392-.304-.588-.732-.588-1.284s.164-.98.492-1.284c.336-.312.852-.536 1.548-.672l2.196-.42c0-.496-.116-.864-.348-1.104-.232-.248-.576-.372-1.032-.372-.408 0-.728.092-.96.276-.232.176-.392.44-.48.792l-1.308-.084c.12-.64.416-1.144.888-1.512.48-.368 1.1-.552 1.86-.552.864 0 1.52.232 1.968.696.456.456.684 1.1.684 1.932v2.484c0 .152.024.26.072.324.056.056.144.084.264.084h.228V263a3.05 3.05 0 01-.468.036c-.272 0-.508-.044-.708-.132a.873.873 0 01-.432-.432c-.096-.208-.144-.484-.144-.828l.132.06c-.064.28-.204.528-.42.744a2.213 2.213 0 01-.804.516c-.32.12-.668.18-1.044.18zm.204-1.008c.384 0 .712-.072.984-.216.272-.152.484-.36.636-.624a1.77 1.77 0 00.228-.9v-.408l-1.872.36c-.384.072-.656.188-.816.348a.796.796 0 00-.228.588c0 .272.092.484.276.636.192.144.456.216.792.216zm7.171 1.008c-.6 0-1.108-.092-1.524-.276-.408-.184-.724-.436-.948-.756a2.264 2.264 0 01-.384-1.128l1.308-.06c.064.352.216.632.456.84.24.208.604.312 1.092.312.4 0 .716-.064.948-.192.232-.128.348-.332.348-.612 0-.152-.04-.28-.12-.384-.072-.112-.216-.204-.432-.276-.216-.08-.536-.156-.96-.228-.632-.12-1.128-.26-1.488-.42-.36-.16-.616-.364-.768-.612-.152-.248-.228-.548-.228-.9 0-.584.216-1.06.648-1.428.44-.368 1.072-.552 1.896-.552.552 0 1.016.096 1.392.288.376.184.668.436.876.756.216.312.352.664.408 1.056l-1.308.072a1.335 1.335 0 00-.24-.576 1.072 1.072 0 00-.456-.384 1.513 1.513 0 00-.684-.144c-.408 0-.712.08-.912.24-.2.16-.3.368-.3.624 0 .192.044.348.132.468.096.12.248.22.456.3.208.072.484.136.828.192.664.112 1.184.252 1.56.42.376.16.64.36.792.6.152.24.228.532.228.876 0 .4-.112.74-.336 1.02-.224.28-.532.496-.924.648a3.921 3.921 0 01-1.356.216zm6.531 0c-.624 0-1.164-.136-1.62-.408a2.739 2.739 0 01-1.044-1.164c-.24-.504-.36-1.092-.36-1.764 0-.672.12-1.256.36-1.752a2.739 2.739 0 011.044-1.164c.448-.28.976-.42 1.584-.42.576 0 1.084.136 1.524.408.44.264.78.648 1.02 1.152.248.504.372 1.112.372 1.824v.324h-4.584c.032.624.196 1.092.492 1.404.304.312.712.468 1.224.468.376 0 .688-.088.936-.264.248-.176.42-.412.516-.708l1.32.084a2.647 2.647 0 01-.996 1.44c-.488.36-1.084.54-1.788.54zm-1.704-3.924h3.24c-.04-.568-.204-.988-.492-1.26-.28-.272-.64-.408-1.08-.408-.456 0-.832.144-1.128.432-.288.28-.468.692-.54 1.236zm9.04 3.78v-8.52h3.18c.976 0 1.736.236 2.28.708.544.464.816 1.112.816 1.944 0 .552-.124 1.032-.372 1.44-.248.4-.604.708-1.068.924-.456.208-1.008.312-1.656.312h-1.884V263h-1.296zm1.296-4.368h1.848c.584 0 1.028-.124 1.332-.372.304-.256.456-.632.456-1.128 0-.488-.152-.852-.456-1.092-.304-.248-.748-.372-1.332-.372h-1.848v2.964zM164.67 263v-6.384h1.164l.048 1.692-.108-.036c.088-.576.264-.996.528-1.26.272-.264.636-.396 1.092-.396h.612v1.14h-.612c-.32 0-.588.052-.804.156a1.06 1.06 0 00-.492.48c-.104.216-.156.496-.156.84V263h-1.272zm6.87.144c-.608 0-1.14-.136-1.596-.408a2.714 2.714 0 01-1.056-1.164c-.248-.504-.372-1.092-.372-1.764 0-.68.124-1.268.372-1.764s.6-.88 1.056-1.152c.456-.28.988-.42 1.596-.42.608 0 1.14.14 1.596.42.456.272.808.656 1.056 1.152.248.496.372 1.084.372 1.764 0 .672-.124 1.26-.372 1.764s-.6.892-1.056 1.164c-.456.272-.988.408-1.596.408zm0-1.104c.544 0 .964-.196 1.26-.588.296-.4.444-.948.444-1.644s-.148-1.24-.444-1.632c-.296-.4-.716-.6-1.26-.6-.536 0-.956.2-1.26.6-.296.392-.444.936-.444 1.632 0 .696.148 1.244.444 1.644.304.392.724.588 1.26.588zm3.267 2.76v-1.044h.576c.216 0 .384-.048.504-.144.128-.096.192-.28.192-.552v-6.444h1.284v6.492c0 .608-.14 1.04-.42 1.296-.272.264-.728.396-1.368.396h-.768zm1.26-9.108v-1.272h1.32v1.272h-1.32zm5.609 7.452c-.624 0-1.164-.136-1.62-.408a2.739 2.739 0 01-1.044-1.164c-.24-.504-.36-1.092-.36-1.764 0-.672.12-1.256.36-1.752a2.739 2.739 0 011.044-1.164c.448-.28.976-.42 1.584-.42.576 0 1.084.136 1.524.408.44.264.78.648 1.02 1.152.248.504.372 1.112.372 1.824v.324h-4.584c.032.624.196 1.092.492 1.404.304.312.712.468 1.224.468.376 0 .688-.088.936-.264.248-.176.42-.412.516-.708l1.32.084a2.647 2.647 0 01-.996 1.44c-.488.36-1.084.54-1.788.54zm-1.704-3.924h3.24c-.04-.568-.204-.988-.492-1.26-.28-.272-.64-.408-1.08-.408-.456 0-.832.144-1.128.432-.288.28-.468.692-.54 1.236zm8.501 3.924c-.608 0-1.14-.136-1.596-.408a2.714 2.714 0 01-1.056-1.164c-.248-.504-.372-1.092-.372-1.764 0-.672.124-1.256.372-1.752.248-.504.6-.892 1.056-1.164.456-.28.988-.42 1.596-.42.52 0 .98.092 1.38.276.408.176.736.436.984.78.256.344.42.764.492 1.26l-1.332.072c-.064-.416-.232-.732-.504-.948-.272-.224-.612-.336-1.02-.336-.536 0-.956.2-1.26.6-.296.392-.444.936-.444 1.632 0 .696.148 1.244.444 1.644.304.392.724.588 1.26.588.408 0 .748-.112 1.02-.336.272-.232.44-.58.504-1.044l1.332.072a2.885 2.885 0 01-.492 1.272c-.248.36-.576.64-.984.84-.4.2-.86.3-1.38.3zm6.23-.144c-.608 0-1.056-.14-1.344-.42-.288-.28-.432-.716-.432-1.308v-6.156h1.272v6.06c0 .296.064.5.192.612.128.112.324.168.588.168h.912V263h-1.188zm-2.748-5.34v-1.044h3.936v1.044h-3.936zm8.272 5.34v-8.52h1.296V263h-1.296zm3.153 0v-8.52h2.736c1.336 0 2.364.372 3.084 1.116.72.736 1.08 1.788 1.08 3.156 0 1.36-.356 2.408-1.068 3.144-.704.736-1.712 1.104-3.024 1.104h-2.808zm1.296-1.188h1.44c.944 0 1.648-.252 2.112-.756.472-.512.708-1.28.708-2.304 0-1.04-.236-1.812-.708-2.316-.464-.512-1.168-.768-2.112-.768h-1.44v6.144z"
              fill="#858585"
              fillOpacity={0.85}
            />
            <rect
              x={57.5}
              y={326.5}
              width={245}
              height={37}
              rx={11.5}
              fill="#212121"
            />
            <rect
              x={57.5}
              y={326.5}
              width={245}
              height={37}
              rx={11.5}
              stroke="#282828"
            />
            <path
              d="M70.032 349v-8.52h1.644l3.936 6.948v-6.948h1.296V349h-1.704l-3.876-6.792V349h-1.296zm10.48.144c-.664 0-1.196-.152-1.596-.456-.392-.304-.588-.732-.588-1.284s.164-.98.492-1.284c.336-.312.852-.536 1.548-.672l2.196-.42c0-.496-.116-.864-.348-1.104-.232-.248-.576-.372-1.032-.372-.408 0-.728.092-.96.276-.232.176-.392.44-.48.792l-1.308-.084c.12-.64.416-1.144.888-1.512.48-.368 1.1-.552 1.86-.552.864 0 1.52.232 1.968.696.456.456.684 1.1.684 1.932v2.484c0 .152.024.26.072.324.056.056.144.084.264.084h.228V349a3.05 3.05 0 01-.468.036c-.272 0-.508-.044-.708-.132a.873.873 0 01-.432-.432c-.096-.208-.144-.484-.144-.828l.132.06c-.064.28-.204.528-.42.744a2.213 2.213 0 01-.804.516c-.32.12-.668.18-1.044.18zm.204-1.008c.384 0 .712-.072.984-.216.272-.152.484-.36.636-.624a1.77 1.77 0 00.228-.9v-.408l-1.872.36c-.384.072-.656.188-.816.348a.796.796 0 00-.228.588c0 .272.092.484.276.636.192.144.456.216.792.216zm4.758.864v-6.384h1.164l.036 1.584-.144-.048c.072-.352.196-.652.372-.9a1.93 1.93 0 01.672-.576c.264-.136.552-.204.864-.204.544 0 .988.156 1.332.468.344.304.56.724.648 1.26h-.204c.072-.376.192-.688.36-.936.176-.256.4-.452.672-.588.272-.136.58-.204.924-.204.448 0 .828.096 1.14.288.32.184.56.456.72.816.168.36.252.8.252 1.32V349H93.01v-3.792c0-.552-.1-.968-.3-1.248-.2-.28-.504-.42-.912-.42-.264 0-.496.068-.696.204-.2.136-.356.332-.468.588a2.453 2.453 0 00-.156.924V349h-1.212v-3.744c0-.544-.092-.964-.276-1.26-.176-.304-.48-.456-.912-.456-.272 0-.508.068-.708.204a1.364 1.364 0 00-.456.6c-.112.256-.168.56-.168.912V349h-1.272zm13.105.144c-.624 0-1.164-.136-1.62-.408a2.739 2.739 0 01-1.044-1.164c-.24-.504-.36-1.092-.36-1.764 0-.672.12-1.256.36-1.752a2.739 2.739 0 011.044-1.164c.448-.28.976-.42 1.584-.42.576 0 1.084.136 1.524.408.44.264.78.648 1.02 1.152.248.504.372 1.112.372 1.824v.324h-4.584c.032.624.196 1.092.492 1.404.304.312.712.468 1.224.468.376 0 .688-.088.936-.264a1.36 1.36 0 00.516-.708l1.32.084a2.647 2.647 0 01-.996 1.44c-.488.36-1.084.54-1.788.54zm-1.704-3.924h3.24c-.04-.568-.204-.988-.492-1.26-.28-.272-.64-.408-1.08-.408-.456 0-.832.144-1.128.432-.288.28-.468.692-.54 1.236zm11.536 3.924c-.608 0-1.14-.136-1.596-.408a2.714 2.714 0 01-1.056-1.164c-.248-.504-.372-1.092-.372-1.764 0-.68.124-1.268.372-1.764s.6-.88 1.056-1.152c.456-.28.988-.42 1.596-.42.608 0 1.14.14 1.596.42.456.272.808.656 1.056 1.152.248.496.372 1.084.372 1.764 0 .672-.124 1.26-.372 1.764s-.6.892-1.056 1.164c-.456.272-.988.408-1.596.408zm0-1.104c.544 0 .964-.196 1.26-.588.296-.4.444-.948.444-1.644s-.148-1.24-.444-1.632c-.296-.4-.716-.6-1.26-.6-.536 0-.956.2-1.26.6-.296.392-.444.936-.444 1.632 0 .696.148 1.244.444 1.644.304.392.724.588 1.26.588zm4.711.96v-6.792c0-.528.148-.948.444-1.26.296-.312.76-.468 1.392-.468h1.128v1.044h-.96c-.248 0-.432.068-.552.204-.12.128-.18.312-.18.552V349h-1.272zm-.888-5.268V342.7h3.756v1.032h-3.756zM122.786 349c-.608 0-1.056-.14-1.344-.42-.288-.28-.432-.716-.432-1.308v-6.156h1.272v6.06c0 .296.064.5.192.612.128.112.324.168.588.168h.912V349h-1.188zm-2.748-5.34v-1.044h3.936v1.044h-3.936zm5.151 5.34v-8.52h1.272v3.576l-.156-.024c.072-.36.204-.652.396-.876.192-.232.428-.404.708-.516.28-.112.588-.168.924-.168.464 0 .856.104 1.176.312.32.2.56.484.72.852.168.368.252.788.252 1.26V349h-1.272v-3.768c0-.576-.1-1-.3-1.272-.192-.28-.496-.42-.912-.42-.464 0-.836.148-1.116.444-.28.288-.42.712-.42 1.272V349h-1.272zm9.577.144c-.624 0-1.164-.136-1.62-.408a2.739 2.739 0 01-1.044-1.164c-.24-.504-.36-1.092-.36-1.764 0-.672.12-1.256.36-1.752a2.739 2.739 0 011.044-1.164c.448-.28.976-.42 1.584-.42.576 0 1.084.136 1.524.408.44.264.78.648 1.02 1.152.248.504.372 1.112.372 1.824v.324h-4.584c.032.624.196 1.092.492 1.404.304.312.712.468 1.224.468.376 0 .688-.088.936-.264.248-.176.42-.412.516-.708l1.32.084a2.647 2.647 0 01-.996 1.44c-.488.36-1.084.54-1.788.54zm-1.704-3.924h3.24c-.04-.568-.204-.988-.492-1.26-.28-.272-.64-.408-1.08-.408-.456 0-.832.144-1.128.432-.288.28-.468.692-.54 1.236zm11.356 3.78c-.608 0-1.056-.14-1.344-.42-.288-.28-.432-.716-.432-1.308v-6.156h1.272v6.06c0 .296.064.5.192.612.128.112.324.168.588.168h.912V349h-1.188zm-2.748-5.34v-1.044h3.936v1.044h-3.936zm6.905 5.484c-.664 0-1.196-.152-1.596-.456-.392-.304-.588-.732-.588-1.284s.164-.98.492-1.284c.336-.312.852-.536 1.548-.672l2.196-.42c0-.496-.116-.864-.348-1.104-.232-.248-.576-.372-1.032-.372-.408 0-.728.092-.96.276-.232.176-.392.44-.48.792l-1.308-.084c.12-.64.416-1.144.888-1.512.48-.368 1.1-.552 1.86-.552.864 0 1.52.232 1.968.696.456.456.684 1.1.684 1.932v2.484c0 .152.024.26.072.324.056.056.144.084.264.084h.228V349a3.05 3.05 0 01-.468.036c-.272 0-.508-.044-.708-.132a.873.873 0 01-.432-.432c-.096-.208-.144-.484-.144-.828l.132.06c-.064.28-.204.528-.42.744a2.213 2.213 0 01-.804.516c-.32.12-.668.18-1.044.18zm.204-1.008c.384 0 .712-.072.984-.216.272-.152.484-.36.636-.624a1.77 1.77 0 00.228-.9v-.408l-1.872.36c-.384.072-.656.188-.816.348a.796.796 0 00-.228.588c0 .272.092.484.276.636.192.144.456.216.792.216zm7.879 1.008c-.44 0-.832-.096-1.176-.288a2.068 2.068 0 01-.78-.816l-.036.96h-1.188v-8.52h1.272v3.036c.168-.28.416-.524.744-.732a2.166 2.166 0 011.164-.312c.552 0 1.032.136 1.44.408.408.272.72.66.936 1.164.224.496.336 1.084.336 1.764 0 .68-.112 1.272-.336 1.776-.216.496-.528.88-.936 1.152-.408.272-.888.408-1.44.408zm-.204-1.104a1.37 1.37 0 001.164-.588c.288-.4.432-.948.432-1.644s-.144-1.24-.432-1.632c-.288-.4-.672-.6-1.152-.6-.36 0-.668.088-.924.264-.256.176-.452.432-.588.768-.136.328-.204.728-.204 1.2 0 .456.068.852.204 1.188.136.336.332.596.588.78.256.176.56.264.912.264zm5.658.96c-.416 0-.752-.108-1.008-.324-.256-.216-.384-.56-.384-1.032v-7.164h1.272v7.044c0 .144.036.252.108.324.08.072.192.108.336.108h.504V349h-.828zm4.541.144c-.624 0-1.164-.136-1.62-.408a2.739 2.739 0 01-1.044-1.164c-.24-.504-.36-1.092-.36-1.764 0-.672.12-1.256.36-1.752a2.739 2.739 0 011.044-1.164c.448-.28.976-.42 1.584-.42.576 0 1.084.136 1.524.408.44.264.78.648 1.02 1.152.248.504.372 1.112.372 1.824v.324h-4.584c.032.624.196 1.092.492 1.404.304.312.712.468 1.224.468.376 0 .688-.088.936-.264.248-.176.42-.412.516-.708l1.32.084a2.647 2.647 0 01-.996 1.44c-.488.36-1.084.54-1.788.54zm-1.704-3.924h3.24c-.04-.568-.204-.988-.492-1.26-.28-.272-.64-.408-1.08-.408-.456 0-.832.144-1.128.432-.288.28-.468.692-.54 1.236z"
              fill="#858585"
              fillOpacity={0.85}
            />
          </g>
          <path
            stroke="#262626"
            strokeWidth={2}
            strokeLinecap="round"
            strokeDasharray="6 6"
            d="M330.009 273.009L348.008 273.164"
          />
          <path
            stroke="#262626"
            strokeWidth={2}
            strokeLinecap="round"
            strokeDasharray="6 6"
            d="M347.991 274.009L346.698 424.003"
          />
        </g>
        <defs>
          <filter
            id="filter0_dddd_113_57"
            x={336}
            y={132}
            width={389}
            height={723}
            filterUnits="userSpaceOnUse"
            colorInterpolationFilters="sRGB"
          >
            <feFlood floodOpacity={0} result="BackgroundImageFix" />
            <feColorMatrix
              in="SourceAlpha"
              values="0 0 0 0 0 0 0 0 0 0 0 0 0 0 0 0 0 0 127 0"
              result="hardAlpha"
            />
            <feOffset dy={7} />
            <feGaussianBlur stdDeviation={8} />
            <feColorMatrix values="0 0 0 0 1 0 0 0 0 1 0 0 0 0 1 0 0 0 0.2 0" />
            <feBlend
              in2="BackgroundImageFix"
              result="effect1_dropShadow_113_57"
            />
            <feColorMatrix
              in="SourceAlpha"
              values="0 0 0 0 0 0 0 0 0 0 0 0 0 0 0 0 0 0 127 0"
              result="hardAlpha"
            />
            <feOffset dx={2} dy={28} />
            <feGaussianBlur stdDeviation={14} />
            <feColorMatrix values="0 0 0 0 0 0 0 0 0 0 0 0 0 0 0 0 0 0 0.17 0" />
            <feBlend
              in2="effect1_dropShadow_113_57"
              result="effect2_dropShadow_113_57"
            />
            <feColorMatrix
              in="SourceAlpha"
              values="0 0 0 0 0 0 0 0 0 0 0 0 0 0 0 0 0 0 127 0"
              result="hardAlpha"
            />
            <feOffset dx={4} dy={64} />
            <feGaussianBlur stdDeviation={19} />
            <feColorMatrix values="0 0 0 0 0 0 0 0 0 0 0 0 0 0 0 0 0 0 0.1 0" />
            <feBlend
              in2="effect2_dropShadow_113_57"
              result="effect3_dropShadow_113_57"
            />
            <feColorMatrix
              in="SourceAlpha"
              values="0 0 0 0 0 0 0 0 0 0 0 0 0 0 0 0 0 0 127 0"
              result="hardAlpha"
            />
            <feOffset dx={7} dy={113} />
            <feGaussianBlur stdDeviation={22.5} />
            <feColorMatrix values="0 0 0 0 0 0 0 0 0 0 0 0 0 0 0 0 0 0 0.03 0" />
            <feBlend
              in2="effect3_dropShadow_113_57"
              result="effect4_dropShadow_113_57"
            />
            <feBlend
              in="SourceGraphic"
              in2="effect4_dropShadow_113_57"
              result="shape"
            />
          </filter>
          <filter
            id="filter1_dddd_113_57"
            x={3}
            y={43}
            width={379}
            height={672}
            filterUnits="userSpaceOnUse"
            colorInterpolationFilters="sRGB"
          >
            <feFlood floodOpacity={0} result="BackgroundImageFix" />
            <feColorMatrix
              in="SourceAlpha"
              values="0 0 0 0 0 0 0 0 0 0 0 0 0 0 0 0 0 0 127 0"
              result="hardAlpha"
            />
            <feOffset dy={7} />
            <feGaussianBlur stdDeviation={8} />
            <feColorMatrix values="0 0 0 0 1 0 0 0 0 1 0 0 0 0 1 0 0 0 0.2 0" />
            <feBlend
              in2="BackgroundImageFix"
              result="effect1_dropShadow_113_57"
            />
            <feColorMatrix
              in="SourceAlpha"
              values="0 0 0 0 0 0 0 0 0 0 0 0 0 0 0 0 0 0 127 0"
              result="hardAlpha"
            />
            <feOffset dx={2} dy={28} />
            <feGaussianBlur stdDeviation={14} />
            <feColorMatrix values="0 0 0 0 0 0 0 0 0 0 0 0 0 0 0 0 0 0 0.17 0" />
            <feBlend
              in2="effect1_dropShadow_113_57"
              result="effect2_dropShadow_113_57"
            />
            <feColorMatrix
              in="SourceAlpha"
              values="0 0 0 0 0 0 0 0 0 0 0 0 0 0 0 0 0 0 127 0"
              result="hardAlpha"
            />
            <feOffset dx={4} dy={64} />
            <feGaussianBlur stdDeviation={19} />
            <feColorMatrix values="0 0 0 0 0 0 0 0 0 0 0 0 0 0 0 0 0 0 0.1 0" />
            <feBlend
              in2="effect2_dropShadow_113_57"
              result="effect3_dropShadow_113_57"
            />
            <feColorMatrix
              in="SourceAlpha"
              values="0 0 0 0 0 0 0 0 0 0 0 0 0 0 0 0 0 0 127 0"
              result="hardAlpha"
            />
            <feOffset dx={7} dy={113} />
            <feGaussianBlur stdDeviation={22.5} />
            <feColorMatrix values="0 0 0 0 0 0 0 0 0 0 0 0 0 0 0 0 0 0 0.03 0" />
            <feBlend
              in2="effect3_dropShadow_113_57"
              result="effect4_dropShadow_113_57"
            />
            <feBlend
              in="SourceGraphic"
              in2="effect4_dropShadow_113_57"
              result="shape"
            />
          </filter>
          <linearGradient
            id="paint0_linear_113_57"
            x1={70.9209}
            y1={82.2704}
            x2={76.9671}
            y2={84.8062}
            gradientUnits="userSpaceOnUse"
          >
            <stop stopColor="#249361" />
            <stop offset={1} stopColor="#3ECF8E" />
          </linearGradient>
          <linearGradient
            id="paint1_linear_113_57"
            x1={68.2403}
            y1={78.6002}
            x2={70.9977}
            y2={83.7909}
            gradientUnits="userSpaceOnUse"
          >
            <stop />
            <stop offset={1} stopOpacity={0} />
          </linearGradient>
          <clipPath id="clip0_113_57">
            <path fill="#fff" d="M0 0H535V365H0z" />
          </clipPath>
          <clipPath id="clip1_113_57">
            <path fill="#fff" transform="translate(406 163)" d="M0 0H16V16H0z" />
          </clipPath>
          <clipPath id="clip2_113_57">
            <path
              fill="#fff"
              transform="translate(62.8 74)"
              d="M0 0H16.3982V17H0z"
            />
          </clipPath>
        </defs>
            </svg>