<svg width="28" height="29" viewBox="0 0 28 29" fill="none" xmlns="http://www.w3.org/2000/svg">
<path d="M23.1015 1.01616C22.1825 1.01442 21.2926 1.33795 20.5894 1.92946C19.8861 2.52098 19.4149 3.34229 19.2592 4.24794C19.1035 5.15358 19.2733 6.08512 19.7386 6.87755C20.2039 7.66998 20.9346 8.27217 21.8014 8.57745V12.7169H6.20035V8.57745C7.06779 8.27077 7.79888 7.6673 8.26441 6.87372C8.72994 6.08013 8.89994 5.14752 8.74435 4.24072C8.58877 3.33391 8.11762 2.5113 7.41419 1.91828C6.71075 1.32526 5.82032 1 4.90027 1C3.98021 1 3.08978 1.32526 2.38634 1.91828C1.68291 2.5113 1.21176 3.33391 1.05618 4.24072C0.900594 5.14752 1.07059 6.08013 1.53612 6.87372C2.00165 7.6673 2.73274 8.27077 3.60018 8.57745V12.7169C3.60018 13.4065 3.87413 14.0679 4.36175 14.5555C4.84938 15.0432 5.51074 15.3171 6.20035 15.3171H12.7008V20.7567C11.8333 21.0633 11.1023 21.6668 10.6367 22.4604C10.1712 23.254 10.0012 24.1866 10.1568 25.0934C10.3124 26.0002 10.7835 26.8228 11.4869 27.4158C12.1904 28.0089 13.0808 28.3341 14.0009 28.3341C14.9209 28.3341 15.8114 28.0089 16.5148 27.4158C17.2182 26.8228 17.6894 26.0002 17.845 25.0934C18.0005 24.1866 17.8305 23.254 17.365 22.4604C16.8995 21.6668 16.1684 21.0633 15.301 20.7567V15.3171H21.8014C22.491 15.3171 23.1524 15.0432 23.64 14.5555C24.1276 14.0679 24.4015 13.4065 24.4015 12.7169V8.57745C25.2683 8.27217 25.999 7.66998 26.4643 6.87755C26.9296 6.08512 27.0994 5.15358 26.9437 4.24794C26.788 3.34229 26.3168 2.52098 25.6135 1.92946C24.9103 1.33795 24.0204 1.01442 23.1015 1.01616ZM4.90027 6.2165C4.64313 6.2165 4.39177 6.14025 4.17798 5.99739C3.96418 5.85454 3.79754 5.65149 3.69914 5.41393C3.60074 5.17637 3.575 4.91497 3.62516 4.66278C3.67532 4.41059 3.79915 4.17893 3.98097 3.99711C4.16279 3.81529 4.39444 3.69147 4.64663 3.64131C4.89882 3.59114 5.16023 3.61689 5.39779 3.71529C5.63535 3.81369 5.83839 3.98033 5.98125 4.19412C6.1241 4.40792 6.20035 4.65928 6.20035 4.91641C6.20035 5.26122 6.06338 5.5919 5.81956 5.83571C5.57575 6.07953 5.24507 6.2165 4.90027 6.2165ZM14.0009 25.7178C13.7437 25.7178 13.4924 25.6415 13.2786 25.4987C13.0648 25.3558 12.8981 25.1528 12.7997 24.9152C12.7013 24.6777 12.6756 24.4163 12.7258 24.1641C12.7759 23.9119 12.8997 23.6802 13.0816 23.4984C13.2634 23.3166 13.495 23.1928 13.7472 23.1426C13.9994 23.0924 14.2608 23.1182 14.4984 23.2166C14.7359 23.315 14.939 23.4816 15.0818 23.6954C15.2247 23.9092 15.301 24.1606 15.301 24.4177C15.301 24.7625 15.164 25.0932 14.9202 25.337C14.6764 25.5808 14.3457 25.7178 14.0009 25.7178ZM23.1015 6.2165C22.8443 6.2165 22.593 6.14025 22.3792 5.99739C22.1654 5.85454 21.9987 5.65149 21.9003 5.41393C21.8019 5.17637 21.7762 4.91497 21.8264 4.66278C21.8765 4.41059 22.0003 4.17893 22.1822 3.99711C22.364 3.81529 22.5956 3.69147 22.8478 3.64131C23.1 3.59114 23.3614 3.61689 23.599 3.71529C23.8365 3.81369 24.0396 3.98033 24.1824 4.19412C24.3253 4.40792 24.4015 4.65928 24.4015 4.91641C24.4015 5.26122 24.2646 5.5919 24.0208 5.83571C23.777 6.07953 23.4463 6.2165 23.1015 6.2165Z" fill="white" stroke="white" stroke-width="0.5"/>
</svg>
