<svg width="2130" height="1200" viewBox="0 0 2130 1200" fill="none" xmlns="http://www.w3.org/2000/svg">
<g clip-path="url(#clip0_1184_347)">
<path d="M2130 0H0V1200H2130V0Z" fill="white"/>
<path d="M628 712.826H686.359C686.359 728.87 692.195 741.663 703.868 751.205C715.539 760.311 731.318 764.864 751.203 764.864C772.818 764.864 789.461 760.745 801.132 752.504C812.804 743.832 818.641 732.34 818.641 718.029C818.641 707.622 815.398 698.948 808.914 692.01C802.862 685.072 791.622 679.433 775.195 675.097L719.43 662.088C691.331 655.15 670.365 644.524 656.531 630.213C643.13 615.903 636.43 597.039 636.43 573.622C636.43 554.107 641.401 537.195 651.343 522.884C661.719 508.574 675.768 497.515 693.492 489.71C711.648 481.903 732.399 478 755.742 478C779.086 478 799.187 482.12 816.047 490.36C833.338 498.599 846.739 510.092 856.249 524.835C866.193 539.58 871.379 557.142 871.812 577.524H813.453C813.02 561.046 807.617 548.253 797.241 539.145C786.867 530.039 772.385 525.486 753.797 525.486C734.776 525.486 720.078 529.605 709.704 537.844C699.327 546.085 694.141 557.359 694.141 571.67C694.141 592.919 709.704 607.446 740.829 615.253L796.593 628.912C823.396 634.983 843.497 644.958 856.899 658.836C870.298 672.278 877 690.709 877 714.126C877 734.075 871.595 751.637 860.788 766.815C849.981 781.56 835.068 793.052 816.047 801.292C797.458 809.097 775.412 813 749.906 813C712.729 813 683.117 803.894 661.07 785.68C639.024 767.466 628 743.181 628 712.826Z" fill="black"/>
<path d="M918.324 805V488.257C942.504 497.069 953.168 497.069 978.968 488.257V805H918.324ZM948.001 467.32C937.248 467.32 927.786 463.433 919.614 455.661C911.871 447.455 908 437.955 908 427.159C908 415.933 911.871 406.432 919.614 398.659C927.786 390.887 937.248 387 948.001 387C959.183 387 968.645 390.887 976.388 398.659C984.129 406.432 988 415.933 988 427.159C988 437.955 984.129 447.455 976.388 455.661C968.645 463.433 959.183 467.32 948.001 467.32Z" fill="black"/>
<path d="M1087 805H1026V487.102H1080.51V540.74C1087 522.971 1099.54 507.904 1116.85 496.203C1134.58 484.068 1156 478 1181.09 478C1209.21 478 1232.57 485.585 1251.17 500.753C1269.77 515.923 1281.89 536.076 1287.51 561.213H1276.48C1280.8 536.076 1292.7 515.923 1312.17 500.753C1331.64 485.585 1355.65 478 1384.2 478C1420.54 478 1449.09 488.618 1469.85 509.856C1490.62 531.092 1501 560.13 1501 596.968V805H1441.3V611.921C1441.3 586.784 1434.81 567.498 1421.83 554.062C1409.29 540.192 1392.2 533.258 1370.57 533.258C1355.43 533.258 1342.02 536.725 1330.34 543.661C1319.09 550.161 1310.22 559.696 1303.73 572.265C1297.24 584.833 1294 599.569 1294 616.471V805H1233.65V611.27C1233.65 586.133 1227.38 567.064 1214.83 554.062C1202.29 540.626 1185.2 533.909 1163.57 533.909C1148.43 533.909 1135.02 537.376 1123.34 544.31C1112.09 550.812 1103.22 560.347 1096.73 572.914C1090.24 585.05 1087 599.569 1087 616.471V805Z" fill="black"/>
</g>
<defs>
<clipPath id="clip0_1184_347">
<rect width="2130" height="1200" fill="white"/>
</clipPath>
</defs>
</svg>
