<svg width="119" height="67" viewBox="0 0 119 67" fill="none" xmlns="http://www.w3.org/2000/svg">
<rect width="119" height="67" rx="6" fill="#701FFC"/>
<path d="M40.8 27.4023H25.2C22.3281 27.4023 20 29.7305 20 32.6023V40.4023C20 43.2742 22.3281 45.6023 25.2 45.6023H40.8C43.6719 45.6023 46 43.2742 46 40.4023V32.6023C46 29.7305 43.6719 27.4023 40.8 27.4023Z" stroke="white" stroke-width="3" stroke-linecap="round" stroke-linejoin="round"/>
<path d="M32.9994 22.2C34.4354 22.2 35.5994 21.0359 35.5994 19.6C35.5994 18.1641 34.4354 17 32.9994 17C31.5635 17 30.3994 18.1641 30.3994 19.6C30.3994 21.0359 31.5635 22.2 32.9994 22.2Z" stroke="white" stroke-width="3" stroke-linecap="round" stroke-linejoin="round"/>
<path d="M33.0004 22.9062V26.5M29.1006 37.7953V35.1953M36.9006 35.1953V37.7953" stroke="white" stroke-width="3" stroke-linecap="round" stroke-linejoin="round"/>
<path d="M71.4034 31.6314L68.5163 32.1428C68.3956 31.7734 68.2038 31.4219 67.9411 31.0881C67.6854 30.7543 67.3374 30.4808 66.897 30.2678C66.4567 30.0547 65.9063 29.9482 65.2457 29.9482C64.3438 29.9482 63.5909 30.1506 62.9872 30.5554C62.3835 30.9531 62.0817 31.468 62.0817 32.1001C62.0817 32.647 62.2841 33.0874 62.6889 33.4212C63.0938 33.755 63.7472 34.0284 64.6491 34.2415L67.2486 34.8381C68.7543 35.1861 69.8764 35.7223 70.6151 36.4467C71.3537 37.1712 71.723 38.1122 71.723 39.2699C71.723 40.25 71.4389 41.1236 70.8707 41.8906C70.3097 42.6506 69.5249 43.2472 68.5163 43.6804C67.5149 44.1136 66.3537 44.3303 65.0327 44.3303C63.2003 44.3303 61.7053 43.9396 60.5476 43.1584C59.3899 42.37 58.6797 41.2514 58.4169 39.8026L61.4957 39.3338C61.6875 40.1364 62.0817 40.7436 62.6783 41.1555C63.2749 41.5604 64.0526 41.7628 65.0114 41.7628C66.0554 41.7628 66.8899 41.5462 67.5149 41.1129C68.1399 40.6726 68.4524 40.1364 68.4524 39.5043C68.4524 38.9929 68.2607 38.5632 67.8771 38.2152C67.5007 37.8672 66.9219 37.6044 66.1406 37.4268L63.3707 36.8196C61.8438 36.4716 60.7145 35.9176 59.983 35.1577C59.2585 34.3977 58.8963 33.4354 58.8963 32.2706C58.8963 31.3047 59.1662 30.4595 59.706 29.7351C60.2457 29.0107 60.9915 28.446 61.9432 28.0412C62.8949 27.6293 63.9851 27.4233 65.2138 27.4233C66.9822 27.4233 68.3743 27.8068 69.3899 28.5739C70.4055 29.3338 71.0767 30.353 71.4034 31.6314ZM75.2253 44V27.6364H78.4107V44H75.2253ZM76.834 25.1115C76.28 25.1115 75.8042 24.9268 75.4064 24.5575C75.0158 24.1811 74.8205 23.7337 74.8205 23.2152C74.8205 22.6896 75.0158 22.2422 75.4064 21.8729C75.8042 21.4964 76.28 21.3082 76.834 21.3082C77.388 21.3082 77.8603 21.4964 78.2509 21.8729C78.6486 22.2422 78.8475 22.6896 78.8475 23.2152C78.8475 23.7337 78.6486 24.1811 78.2509 24.5575C77.8603 24.9268 77.388 25.1115 76.834 25.1115ZM82.696 44V27.6364H85.7536V30.2997H85.956C86.2969 29.3977 86.8544 28.6946 87.6286 28.1903C88.4027 27.679 89.3295 27.4233 90.4091 27.4233C91.5028 27.4233 92.419 27.679 93.1577 28.1903C93.9034 28.7017 94.4538 29.4048 94.8089 30.2997H94.9794C95.37 29.4261 95.9915 28.7301 96.8438 28.2116C97.696 27.6861 98.7116 27.4233 99.8906 27.4233C101.375 27.4233 102.586 27.8885 103.523 28.8189C104.468 29.7493 104.94 31.152 104.94 33.027V44H101.755V33.3253C101.755 32.2173 101.453 31.4148 100.849 30.9176C100.246 30.4205 99.5249 30.1719 98.6868 30.1719C97.6499 30.1719 96.8438 30.4915 96.2685 31.1307C95.6932 31.7628 95.4055 32.576 95.4055 33.5703V44H92.2308V33.1229C92.2308 32.2351 91.9538 31.5213 91.3999 30.9815C90.8459 30.4418 90.125 30.1719 89.2372 30.1719C88.6335 30.1719 88.076 30.3317 87.5646 30.6513C87.0604 30.9638 86.652 31.4006 86.3395 31.9616C86.0341 32.5227 85.8814 33.1726 85.8814 33.9112V44H82.696Z" fill="white"/>
</svg>
